%TF.GenerationSoftware,KiCad,Pcbnew,(5.1.9)-1*%
%TF.CreationDate,2022-03-08T16:30:03+11:00*%
%TF.ProjectId,fuse,66757365-2e6b-4696-9361-645f70636258,rev?*%
%TF.SameCoordinates,Original*%
%TF.FileFunction,Copper,L2,Bot*%
%TF.FilePolarity,Positive*%
%FSLAX46Y46*%
G04 Gerber Fmt 4.6, Leading zero omitted, Abs format (unit mm)*
G04 Created by KiCad (PCBNEW (5.1.9)-1) date 2022-03-08 16:30:03*
%MOMM*%
%LPD*%
G01*
G04 APERTURE LIST*
%TA.AperFunction,ComponentPad*%
%ADD10C,3.000000*%
%TD*%
%TA.AperFunction,ComponentPad*%
%ADD11O,2.200000X1.600000*%
%TD*%
%TA.AperFunction,ComponentPad*%
%ADD12O,2.200000X1.500000*%
%TD*%
%TA.AperFunction,ComponentPad*%
%ADD13O,1.400000X1.400000*%
%TD*%
%TA.AperFunction,ComponentPad*%
%ADD14C,1.400000*%
%TD*%
%TA.AperFunction,ComponentPad*%
%ADD15C,2.000000*%
%TD*%
%TA.AperFunction,ComponentPad*%
%ADD16C,1.524000*%
%TD*%
%TA.AperFunction,ComponentPad*%
%ADD17C,1.600000*%
%TD*%
%TA.AperFunction,Conductor*%
%ADD18C,0.250000*%
%TD*%
G04 APERTURE END LIST*
D10*
%TO.P,REF\u002A\u002A,1*%
%TO.N,N/C*%
X67000000Y-88000000D03*
%TD*%
%TO.P,REF\u002A\u002A,1*%
%TO.N,N/C*%
X148000000Y-87000000D03*
%TD*%
%TO.P,REF\u002A\u002A,1*%
%TO.N,N/C*%
X148000000Y-36500000D03*
%TD*%
%TO.P,REF\u002A\u002A,1*%
%TO.N,N/C*%
X76000000Y-36500000D03*
%TD*%
D11*
%TO.P,SW42,1*%
%TO.N,Col2*%
X99100000Y-99900000D03*
X88900000Y-99900000D03*
D12*
%TO.P,SW42,2*%
%TO.N,Net-(D42-Pad2)*%
X94000000Y-101900000D03*
%TD*%
D11*
%TO.P,SW22,1*%
%TO.N,Col2*%
X108100000Y-65900000D03*
X97900000Y-65900000D03*
D12*
%TO.P,SW22,2*%
%TO.N,Net-(D22-Pad2)*%
X103000000Y-67900000D03*
%TD*%
D11*
%TO.P,SW23,1*%
%TO.N,Col3*%
X126100000Y-65900000D03*
X115900000Y-65900000D03*
D12*
%TO.P,SW23,2*%
%TO.N,Net-(D23-Pad2)*%
X121000000Y-67900000D03*
%TD*%
D11*
%TO.P,SW24,1*%
%TO.N,Col4*%
X144100000Y-65900000D03*
X133900000Y-65900000D03*
D12*
%TO.P,SW24,2*%
%TO.N,Net-(D24-Pad2)*%
X139000000Y-67900000D03*
%TD*%
D11*
%TO.P,SW31,1*%
%TO.N,Col1*%
X90100000Y-82900000D03*
X79900000Y-82900000D03*
D12*
%TO.P,SW31,2*%
%TO.N,Net-(D31-Pad2)*%
X85000000Y-84900000D03*
%TD*%
D11*
%TO.P,SW21,1*%
%TO.N,Col1*%
X90100000Y-65900000D03*
X79900000Y-65900000D03*
D12*
%TO.P,SW21,2*%
%TO.N,Net-(D21-Pad2)*%
X85000000Y-67900000D03*
%TD*%
D11*
%TO.P,SW10,1*%
%TO.N,Col0*%
X67600000Y-48900000D03*
X57400000Y-48900000D03*
D12*
%TO.P,SW10,2*%
%TO.N,Net-(D10-Pad2)*%
X62500000Y-50900000D03*
%TD*%
D11*
%TO.P,SW13,1*%
%TO.N,Col3*%
X126100000Y-48900000D03*
X115900000Y-48900000D03*
D12*
%TO.P,SW13,2*%
%TO.N,Net-(D13-Pad2)*%
X121000000Y-50900000D03*
%TD*%
D13*
%TO.P,D0,2*%
%TO.N,Net-(D0-Pad2)*%
X31361000Y-70755000D03*
D14*
%TO.P,D0,1*%
%TO.N,Row0*%
X31361000Y-65675000D03*
%TD*%
D13*
%TO.P,D1,2*%
%TO.N,Net-(D1-Pad2)*%
X33901000Y-70755000D03*
D14*
%TO.P,D1,1*%
%TO.N,Row0*%
X33901000Y-65675000D03*
%TD*%
D13*
%TO.P,D2,2*%
%TO.N,Net-(D2-Pad2)*%
X36441000Y-70755000D03*
D14*
%TO.P,D2,1*%
%TO.N,Row0*%
X36441000Y-65675000D03*
%TD*%
D13*
%TO.P,D3,2*%
%TO.N,Net-(D3-Pad2)*%
X41521000Y-70755000D03*
D14*
%TO.P,D3,1*%
%TO.N,Row0*%
X41521000Y-65675000D03*
%TD*%
D13*
%TO.P,D4,2*%
%TO.N,Net-(D4-Pad2)*%
X44061000Y-70755000D03*
D14*
%TO.P,D4,1*%
%TO.N,Row0*%
X44061000Y-65675000D03*
%TD*%
D13*
%TO.P,D5,2*%
%TO.N,Net-(D5-Pad2)*%
X46601000Y-70755000D03*
D14*
%TO.P,D5,1*%
%TO.N,Row0*%
X46601000Y-65675000D03*
%TD*%
D13*
%TO.P,D10,2*%
%TO.N,Net-(D10-Pad2)*%
X31361000Y-78375000D03*
D14*
%TO.P,D10,1*%
%TO.N,Row1*%
X31361000Y-73295000D03*
%TD*%
D13*
%TO.P,D11,2*%
%TO.N,Net-(D11-Pad2)*%
X33901000Y-78375000D03*
D14*
%TO.P,D11,1*%
%TO.N,Row1*%
X33901000Y-73295000D03*
%TD*%
D13*
%TO.P,D12,2*%
%TO.N,Net-(D12-Pad2)*%
X36441000Y-78375000D03*
D14*
%TO.P,D12,1*%
%TO.N,Row1*%
X36441000Y-73295000D03*
%TD*%
D13*
%TO.P,D13,2*%
%TO.N,Net-(D13-Pad2)*%
X41521000Y-78375000D03*
D14*
%TO.P,D13,1*%
%TO.N,Row1*%
X41521000Y-73295000D03*
%TD*%
D13*
%TO.P,D14,2*%
%TO.N,Net-(D14-Pad2)*%
X44061000Y-78375000D03*
D14*
%TO.P,D14,1*%
%TO.N,Row1*%
X44061000Y-73295000D03*
%TD*%
D13*
%TO.P,D15,2*%
%TO.N,Net-(D15-Pad2)*%
X46601000Y-78375000D03*
D14*
%TO.P,D15,1*%
%TO.N,Row1*%
X46601000Y-73295000D03*
%TD*%
D13*
%TO.P,D20,2*%
%TO.N,Net-(D20-Pad2)*%
X31361000Y-85995000D03*
D14*
%TO.P,D20,1*%
%TO.N,Row2*%
X31361000Y-80915000D03*
%TD*%
D13*
%TO.P,D21,2*%
%TO.N,Net-(D21-Pad2)*%
X33901000Y-85995000D03*
D14*
%TO.P,D21,1*%
%TO.N,Row2*%
X33901000Y-80915000D03*
%TD*%
D13*
%TO.P,D22,2*%
%TO.N,Net-(D22-Pad2)*%
X36441000Y-85995000D03*
D14*
%TO.P,D22,1*%
%TO.N,Row2*%
X36441000Y-80915000D03*
%TD*%
D13*
%TO.P,D23,2*%
%TO.N,Net-(D23-Pad2)*%
X41521000Y-85995000D03*
D14*
%TO.P,D23,1*%
%TO.N,Row2*%
X41521000Y-80915000D03*
%TD*%
D13*
%TO.P,D24,2*%
%TO.N,Net-(D24-Pad2)*%
X44061000Y-85995000D03*
D14*
%TO.P,D24,1*%
%TO.N,Row2*%
X44061000Y-80915000D03*
%TD*%
D13*
%TO.P,D25,2*%
%TO.N,Net-(D25-Pad2)*%
X46601000Y-85995000D03*
D14*
%TO.P,D25,1*%
%TO.N,Row2*%
X46601000Y-80915000D03*
%TD*%
D13*
%TO.P,D30,2*%
%TO.N,Net-(D30-Pad2)*%
X31361000Y-93615000D03*
D14*
%TO.P,D30,1*%
%TO.N,Row3*%
X31361000Y-88535000D03*
%TD*%
D13*
%TO.P,D31,2*%
%TO.N,Net-(D31-Pad2)*%
X33901000Y-93615000D03*
D14*
%TO.P,D31,1*%
%TO.N,Row3*%
X33901000Y-88535000D03*
%TD*%
D13*
%TO.P,D32,2*%
%TO.N,Net-(D32-Pad2)*%
X36441000Y-93615000D03*
D14*
%TO.P,D32,1*%
%TO.N,Row3*%
X36441000Y-88535000D03*
%TD*%
D13*
%TO.P,D33,2*%
%TO.N,Net-(D33-Pad2)*%
X41521000Y-93615000D03*
D14*
%TO.P,D33,1*%
%TO.N,Row3*%
X41521000Y-88535000D03*
%TD*%
D13*
%TO.P,D34,2*%
%TO.N,Net-(D34-Pad2)*%
X44061000Y-93615000D03*
D14*
%TO.P,D34,1*%
%TO.N,Row3*%
X44061000Y-88535000D03*
%TD*%
D13*
%TO.P,D35,2*%
%TO.N,Net-(D35-Pad2)*%
X46601000Y-93615000D03*
D14*
%TO.P,D35,1*%
%TO.N,Row3*%
X46601000Y-88535000D03*
%TD*%
D13*
%TO.P,D40,2*%
%TO.N,Net-(D40-Pad2)*%
X46601000Y-101235000D03*
D14*
%TO.P,D40,1*%
%TO.N,Row4*%
X46601000Y-96155000D03*
%TD*%
D13*
%TO.P,D41,2*%
%TO.N,Net-(D41-Pad2)*%
X44061000Y-101235000D03*
D14*
%TO.P,D41,1*%
%TO.N,Row4*%
X44061000Y-96155000D03*
%TD*%
D13*
%TO.P,D42,2*%
%TO.N,Net-(D42-Pad2)*%
X41521000Y-101235000D03*
D14*
%TO.P,D42,1*%
%TO.N,Row4*%
X41521000Y-96155000D03*
%TD*%
D13*
%TO.P,D43,2*%
%TO.N,Net-(D43-Pad2)*%
X36441000Y-101235000D03*
D14*
%TO.P,D43,1*%
%TO.N,Row4*%
X36441000Y-96155000D03*
%TD*%
D13*
%TO.P,D44,2*%
%TO.N,Net-(D44-Pad2)*%
X33901000Y-101235000D03*
D14*
%TO.P,D44,1*%
%TO.N,Row4*%
X33901000Y-96155000D03*
%TD*%
D13*
%TO.P,D45,2*%
%TO.N,Net-(D45-Pad2)*%
X31361000Y-101235000D03*
D14*
%TO.P,D45,1*%
%TO.N,Row4*%
X31361000Y-96155000D03*
%TD*%
D15*
%TO.P,Reset1,2*%
%TO.N,GND*%
X35750000Y-62000000D03*
%TO.P,Reset1,1*%
%TO.N,RESET*%
X42250000Y-62000000D03*
%TD*%
D16*
%TO.P,U1,1*%
%TO.N,Net-(U1-Pad1)*%
X46611400Y-25522000D03*
%TO.P,U1,2*%
%TO.N,Net-(U1-Pad2)*%
X46611400Y-28062000D03*
%TO.P,U1,3*%
%TO.N,Net-(U1-Pad3)*%
X46611400Y-30602000D03*
%TO.P,U1,4*%
%TO.N,Net-(U1-Pad4)*%
X46611400Y-33142000D03*
%TO.P,U1,5*%
%TO.N,Net-(U1-Pad5)*%
X46611400Y-35682000D03*
%TO.P,U1,6*%
%TO.N,Net-(U1-Pad6)*%
X46611400Y-38222000D03*
%TO.P,U1,7*%
%TO.N,Col5*%
X46611400Y-40762000D03*
%TO.P,U1,8*%
%TO.N,Col4*%
X46611400Y-43302000D03*
%TO.P,U1,9*%
%TO.N,Col3*%
X46611400Y-45842000D03*
%TO.P,U1,10*%
%TO.N,Col2*%
X46611400Y-48382000D03*
%TO.P,U1,11*%
%TO.N,Col1*%
X46611400Y-50922000D03*
%TO.P,U1,12*%
%TO.N,Col0*%
X46611400Y-53462000D03*
%TO.P,U1,13*%
%TO.N,Row0*%
X31391400Y-53462000D03*
%TO.P,U1,14*%
%TO.N,Row1*%
X31391400Y-50922000D03*
%TO.P,U1,15*%
%TO.N,Row2*%
X31391400Y-48382000D03*
%TO.P,U1,16*%
%TO.N,Row3*%
X31391400Y-45842000D03*
%TO.P,U1,17*%
%TO.N,Row4*%
X31391400Y-43302000D03*
%TO.P,U1,18*%
%TO.N,Net-(U1-Pad18)*%
X31391400Y-40762000D03*
%TO.P,U1,19*%
%TO.N,Net-(U1-Pad19)*%
X31391400Y-38222000D03*
%TO.P,U1,20*%
%TO.N,Net-(U1-Pad20)*%
X31391400Y-35682000D03*
%TO.P,U1,21*%
%TO.N,Net-(U1-Pad21)*%
X31391400Y-33142000D03*
%TO.P,U1,22*%
%TO.N,RESET*%
X31391400Y-30602000D03*
%TO.P,U1,23*%
%TO.N,GND*%
X31391400Y-28062000D03*
%TO.P,U1,24*%
%TO.N,Net-(U1-Pad24)*%
X31391400Y-25522000D03*
%TO.P,U1,25*%
%TO.N,B-*%
X31391400Y-23022000D03*
%TO.P,U1,26*%
%TO.N,B+*%
X46611400Y-23022000D03*
%TD*%
D11*
%TO.P,SW0,1*%
%TO.N,Col0*%
X67600000Y-31900000D03*
X57400000Y-31900000D03*
D12*
%TO.P,SW0,2*%
%TO.N,Net-(D0-Pad2)*%
X62500000Y-33900000D03*
%TD*%
D11*
%TO.P,SW1,1*%
%TO.N,Col1*%
X90100000Y-31900000D03*
X79900000Y-31900000D03*
D12*
%TO.P,SW1,2*%
%TO.N,Net-(D1-Pad2)*%
X85000000Y-33900000D03*
%TD*%
D11*
%TO.P,SW2,1*%
%TO.N,Col2*%
X108100000Y-31900000D03*
X97900000Y-31900000D03*
D12*
%TO.P,SW2,2*%
%TO.N,Net-(D2-Pad2)*%
X103000000Y-33900000D03*
%TD*%
D11*
%TO.P,SW3,1*%
%TO.N,Col3*%
X126100000Y-31900000D03*
X115900000Y-31900000D03*
D12*
%TO.P,SW3,2*%
%TO.N,Net-(D3-Pad2)*%
X121000000Y-33900000D03*
%TD*%
D11*
%TO.P,SW4,1*%
%TO.N,Col4*%
X144100000Y-31900000D03*
X133900000Y-31900000D03*
D12*
%TO.P,SW4,2*%
%TO.N,Net-(D4-Pad2)*%
X139000000Y-33900000D03*
%TD*%
D11*
%TO.P,SW5,1*%
%TO.N,Col5*%
X162100000Y-31900000D03*
X151900000Y-31900000D03*
D12*
%TO.P,SW5,2*%
%TO.N,Net-(D5-Pad2)*%
X157000000Y-33900000D03*
%TD*%
D11*
%TO.P,SW11,1*%
%TO.N,Col1*%
X90100000Y-48900000D03*
X79900000Y-48900000D03*
D12*
%TO.P,SW11,2*%
%TO.N,Net-(D11-Pad2)*%
X85000000Y-50900000D03*
%TD*%
D11*
%TO.P,SW12,1*%
%TO.N,Col2*%
X108100000Y-48900000D03*
X97900000Y-48900000D03*
D12*
%TO.P,SW12,2*%
%TO.N,Net-(D12-Pad2)*%
X103000000Y-50900000D03*
%TD*%
D11*
%TO.P,SW14,1*%
%TO.N,Col4*%
X144100000Y-48900000D03*
X133900000Y-48900000D03*
D12*
%TO.P,SW14,2*%
%TO.N,Net-(D14-Pad2)*%
X139000000Y-50900000D03*
%TD*%
D11*
%TO.P,SW15,1*%
%TO.N,Col5*%
X162100000Y-48900000D03*
X151900000Y-48900000D03*
D12*
%TO.P,SW15,2*%
%TO.N,Net-(D15-Pad2)*%
X157000000Y-50900000D03*
%TD*%
D11*
%TO.P,SW20,1*%
%TO.N,Col0*%
X67600000Y-65900000D03*
X57400000Y-65900000D03*
D12*
%TO.P,SW20,2*%
%TO.N,Net-(D20-Pad2)*%
X62500000Y-67900000D03*
%TD*%
D11*
%TO.P,SW25,1*%
%TO.N,Col5*%
X162100000Y-65900000D03*
X151900000Y-65900000D03*
D12*
%TO.P,SW25,2*%
%TO.N,Net-(D25-Pad2)*%
X157000000Y-67900000D03*
%TD*%
D11*
%TO.P,SW30,1*%
%TO.N,Col0*%
X67600000Y-82900000D03*
X57400000Y-82900000D03*
D12*
%TO.P,SW30,2*%
%TO.N,Net-(D30-Pad2)*%
X62500000Y-84900000D03*
%TD*%
D11*
%TO.P,SW32,1*%
%TO.N,Col2*%
X108100000Y-82900000D03*
X97900000Y-82900000D03*
D12*
%TO.P,SW32,2*%
%TO.N,Net-(D32-Pad2)*%
X103000000Y-84900000D03*
%TD*%
D11*
%TO.P,SW33,1*%
%TO.N,Col3*%
X126100000Y-82900000D03*
X115900000Y-82900000D03*
D12*
%TO.P,SW33,2*%
%TO.N,Net-(D33-Pad2)*%
X121000000Y-84900000D03*
%TD*%
D11*
%TO.P,SW34,1*%
%TO.N,Col4*%
X144100000Y-82900000D03*
X133900000Y-82900000D03*
D12*
%TO.P,SW34,2*%
%TO.N,Net-(D34-Pad2)*%
X139000000Y-84900000D03*
%TD*%
D11*
%TO.P,SW35,1*%
%TO.N,Col5*%
X162100000Y-82900000D03*
X151900000Y-82900000D03*
D12*
%TO.P,SW35,2*%
%TO.N,Net-(D35-Pad2)*%
X157000000Y-84900000D03*
%TD*%
D11*
%TO.P,SW40,1*%
%TO.N,Col0*%
X63100000Y-99900000D03*
X52900000Y-99900000D03*
D12*
%TO.P,SW40,2*%
%TO.N,Net-(D40-Pad2)*%
X58000000Y-101900000D03*
%TD*%
D11*
%TO.P,SW41,1*%
%TO.N,Col1*%
X81100000Y-99900000D03*
X70900000Y-99900000D03*
D12*
%TO.P,SW41,2*%
%TO.N,Net-(D41-Pad2)*%
X76000000Y-101900000D03*
%TD*%
D11*
%TO.P,SW43,1*%
%TO.N,Col3*%
X117100000Y-99900000D03*
X106900000Y-99900000D03*
D12*
%TO.P,SW43,2*%
%TO.N,Net-(D43-Pad2)*%
X112000000Y-101900000D03*
%TD*%
D11*
%TO.P,SW44,1*%
%TO.N,Col4*%
X135100000Y-99900000D03*
X124900000Y-99900000D03*
D12*
%TO.P,SW44,2*%
%TO.N,Net-(D44-Pad2)*%
X130000000Y-101900000D03*
%TD*%
D11*
%TO.P,SW45,1*%
%TO.N,Col5*%
X157600000Y-99900000D03*
X147400000Y-99900000D03*
D12*
%TO.P,SW45,2*%
%TO.N,Net-(D45-Pad2)*%
X152500000Y-101900000D03*
%TD*%
D17*
%TO.P,Power1,1*%
%TO.N,B-*%
X36500000Y-57500000D03*
%TO.P,Power1,2*%
%TO.N,Net-(Power1-Pad2)*%
X39000000Y-57500000D03*
%TO.P,Power1,3*%
%TO.N,Net-(Power1-Pad3)*%
X41500000Y-57500000D03*
%TD*%
D16*
%TO.P,U3,1*%
%TO.N,Net-(Power1-Pad2)*%
X39000000Y-53500000D03*
%TD*%
%TO.P,U4,1*%
%TO.N,B+*%
X42500000Y-53500000D03*
%TD*%
D18*
%TO.N,Row0*%
X31391400Y-65644600D02*
X31361000Y-65675000D01*
X31391400Y-53462000D02*
X31391400Y-65644600D01*
%TO.N,Row1*%
X32478401Y-52009001D02*
X32478401Y-64478401D01*
X31391400Y-50922000D02*
X32478401Y-52009001D01*
X32478401Y-64478401D02*
X32500000Y-64500000D01*
X37466001Y-72269999D02*
X36441000Y-73295000D01*
X37466001Y-65182999D02*
X37466001Y-72269999D01*
X36783002Y-64500000D02*
X37466001Y-65182999D01*
X32500000Y-64500000D02*
X36783002Y-64500000D01*
%TO.N,Row2*%
X37916011Y-79439989D02*
X36441000Y-80915000D01*
X37916011Y-64996599D02*
X37916011Y-79439989D01*
X36919412Y-64000000D02*
X37916011Y-64996599D01*
X33000000Y-64000000D02*
X36919412Y-64000000D01*
X33000000Y-49990600D02*
X33000000Y-64000000D01*
X31391400Y-48382000D02*
X33000000Y-49990600D01*
%TO.N,Row3*%
X47626001Y-87509999D02*
X46601000Y-88535000D01*
X31391400Y-45842000D02*
X37000000Y-51450600D01*
X37000000Y-51450600D02*
X37000000Y-56000000D01*
X43500000Y-56000000D02*
X47626001Y-60126001D01*
X37000000Y-56000000D02*
X43500000Y-56000000D01*
X47626001Y-60126001D02*
X47626001Y-87509999D01*
%TO.N,Row4*%
X36496001Y-96099999D02*
X36441000Y-96155000D01*
X48076011Y-94679989D02*
X46601000Y-96155000D01*
X31391400Y-43302000D02*
X37450010Y-49360610D01*
X37450010Y-49360610D02*
X37450010Y-55450010D01*
X48076011Y-59939601D02*
X48076011Y-60923989D01*
X43686401Y-55549991D02*
X48076011Y-59939601D01*
X37549990Y-55549990D02*
X43686401Y-55549991D01*
X37450010Y-55450010D02*
X37549990Y-55549990D01*
X48076011Y-60923989D02*
X48076011Y-94679989D01*
%TO.N,Col0*%
X54520000Y-41365000D02*
X54500000Y-41385000D01*
X67600000Y-31900000D02*
X57400000Y-31900000D01*
X55730000Y-31900000D02*
X54500000Y-33130000D01*
X57400000Y-31900000D02*
X55730000Y-31900000D01*
X58225001Y-48074999D02*
X57400000Y-48900000D01*
X58225001Y-32725001D02*
X58225001Y-48074999D01*
X57400000Y-31900000D02*
X58225001Y-32725001D01*
X58225001Y-65074999D02*
X57400000Y-65900000D01*
X58225001Y-49725001D02*
X58225001Y-65074999D01*
X57400000Y-48900000D02*
X58225001Y-49725001D01*
X57400000Y-65900000D02*
X67600000Y-65900000D01*
X57400000Y-82900000D02*
X67600000Y-82900000D01*
X52900000Y-99900000D02*
X63100000Y-99900000D01*
X58225001Y-82074999D02*
X57400000Y-82900000D01*
X58225001Y-66725001D02*
X58225001Y-82074999D01*
X57400000Y-65900000D02*
X58225001Y-66725001D01*
X55974999Y-96825001D02*
X52900000Y-99900000D01*
X55974999Y-84325001D02*
X55974999Y-96825001D01*
X57400000Y-82900000D02*
X55974999Y-84325001D01*
X57400000Y-48900000D02*
X67600000Y-48900000D01*
X46611400Y-53462000D02*
X54500000Y-45573400D01*
X54500000Y-45573400D02*
X54500000Y-43500000D01*
X54500000Y-43500000D02*
X54500000Y-33130000D01*
%TO.N,Col1*%
X77000000Y-24295000D02*
X76835000Y-24130000D01*
X76835000Y-24130000D02*
X52578000Y-24130000D01*
X90100000Y-31900000D02*
X79900000Y-31900000D01*
X80725001Y-48074999D02*
X79900000Y-48900000D01*
X80725001Y-32725001D02*
X80725001Y-48074999D01*
X79900000Y-31900000D02*
X80725001Y-32725001D01*
X80725001Y-24725001D02*
X80130000Y-24130000D01*
X80725001Y-31074999D02*
X80725001Y-24725001D01*
X79900000Y-31900000D02*
X80725001Y-31074999D01*
X76835000Y-24130000D02*
X80130000Y-24130000D01*
X80725001Y-49725001D02*
X79900000Y-48900000D01*
X80725001Y-65074999D02*
X80725001Y-49725001D01*
X79900000Y-65900000D02*
X80725001Y-65074999D01*
X79900000Y-65900000D02*
X90100000Y-65900000D01*
X79900000Y-82900000D02*
X90100000Y-82900000D01*
X70900000Y-99900000D02*
X81100000Y-99900000D01*
X73974999Y-96825001D02*
X70900000Y-99900000D01*
X73974999Y-88825001D02*
X73974999Y-96825001D01*
X79900000Y-82900000D02*
X73974999Y-88825001D01*
X80725001Y-82074999D02*
X79900000Y-82900000D01*
X80725001Y-66725001D02*
X80725001Y-82074999D01*
X79900000Y-65900000D02*
X80725001Y-66725001D01*
X79900000Y-48900000D02*
X90100000Y-48900000D01*
X52578000Y-44955400D02*
X52578000Y-42078000D01*
X52578000Y-42078000D02*
X52578000Y-24130000D01*
X46611400Y-50922000D02*
X52578000Y-44955400D01*
X52578000Y-43552400D02*
X52578000Y-42078000D01*
%TO.N,Col2*%
X52127990Y-23818010D02*
X52451000Y-23495000D01*
X52451000Y-23495000D02*
X94615000Y-23495000D01*
X97900000Y-31900000D02*
X108100000Y-31900000D01*
X98725001Y-48074999D02*
X97900000Y-48900000D01*
X98725001Y-32725001D02*
X98725001Y-48074999D01*
X97900000Y-31900000D02*
X98725001Y-32725001D01*
X98725001Y-31074999D02*
X98725001Y-24725001D01*
X98725001Y-24725001D02*
X97495000Y-23495000D01*
X97900000Y-31900000D02*
X98725001Y-31074999D01*
X94615000Y-23495000D02*
X97495000Y-23495000D01*
X98725001Y-65074999D02*
X97900000Y-65900000D01*
X98725001Y-49725001D02*
X98725001Y-65074999D01*
X97900000Y-48900000D02*
X98725001Y-49725001D01*
X97900000Y-65900000D02*
X108100000Y-65900000D01*
X97900000Y-82900000D02*
X108100000Y-82900000D01*
X88900000Y-99900000D02*
X99100000Y-99900000D01*
X91974999Y-96825001D02*
X88900000Y-99900000D01*
X91974999Y-88825001D02*
X91974999Y-96825001D01*
X97900000Y-82900000D02*
X91974999Y-88825001D01*
X98725001Y-66725001D02*
X97900000Y-65900000D01*
X98725001Y-82074999D02*
X98725001Y-66725001D01*
X97900000Y-82900000D02*
X98725001Y-82074999D01*
X97900000Y-48900000D02*
X108100000Y-48900000D01*
X52127990Y-42865410D02*
X52127990Y-39872010D01*
X46611400Y-48382000D02*
X52127990Y-42865410D01*
X52127990Y-39872010D02*
X52127990Y-23818010D01*
X52127990Y-41462410D02*
X52127990Y-39872010D01*
%TO.N,Col3*%
X52070000Y-22860000D02*
X52832000Y-22860000D01*
X51677981Y-23252019D02*
X52070000Y-22860000D01*
X52832000Y-22860000D02*
X113030000Y-22860000D01*
X115900000Y-31900000D02*
X126100000Y-31900000D01*
X116725001Y-48074999D02*
X115900000Y-48900000D01*
X116725001Y-32725001D02*
X116725001Y-48074999D01*
X115900000Y-31900000D02*
X116725001Y-32725001D01*
X116725001Y-23725001D02*
X115860000Y-22860000D01*
X115900000Y-31900000D02*
X116725001Y-31074999D01*
X116725001Y-31074999D02*
X116725001Y-23725001D01*
X113030000Y-22860000D02*
X115860000Y-22860000D01*
X116725001Y-82074999D02*
X115900000Y-82900000D01*
X116725001Y-66725001D02*
X116725001Y-82074999D01*
X115900000Y-65900000D02*
X116725001Y-66725001D01*
X116725001Y-49725001D02*
X115900000Y-48900000D01*
X116725001Y-65074999D02*
X116725001Y-49725001D01*
X115900000Y-65900000D02*
X116725001Y-65074999D01*
X115900000Y-65900000D02*
X126100000Y-65900000D01*
X115900000Y-82900000D02*
X126100000Y-82900000D01*
X106900000Y-99900000D02*
X117100000Y-99900000D01*
X109974999Y-96825001D02*
X106900000Y-99900000D01*
X109974999Y-88825001D02*
X109974999Y-96825001D01*
X115900000Y-82900000D02*
X109974999Y-88825001D01*
X115900000Y-48900000D02*
X126100000Y-48900000D01*
X46611400Y-45842000D02*
X51677981Y-40775419D01*
X51677981Y-36177981D02*
X51677981Y-23252019D01*
X51677981Y-40775419D02*
X51677981Y-36177981D01*
X51677981Y-39372419D02*
X51677981Y-36177981D01*
%TO.N,Col4*%
X51227972Y-23065618D02*
X52068590Y-22225000D01*
X52068590Y-22225000D02*
X52197000Y-22225000D01*
X52197000Y-22225000D02*
X130810000Y-22225000D01*
X133900000Y-31900000D02*
X144100000Y-31900000D01*
X134725001Y-48074999D02*
X133900000Y-48900000D01*
X134725001Y-32725001D02*
X134725001Y-48074999D01*
X133900000Y-31900000D02*
X134725001Y-32725001D01*
X134725001Y-23175001D02*
X133775000Y-22225000D01*
X134725001Y-31074999D02*
X134725001Y-23175001D01*
X133900000Y-31900000D02*
X134725001Y-31074999D01*
X130810000Y-22225000D02*
X133775000Y-22225000D01*
X133900000Y-48900000D02*
X144100000Y-48900000D01*
X133900000Y-65900000D02*
X144100000Y-65900000D01*
X134725001Y-65074999D02*
X133900000Y-65900000D01*
X134725001Y-49725001D02*
X134725001Y-65074999D01*
X133900000Y-48900000D02*
X134725001Y-49725001D01*
X134725001Y-82074999D02*
X134725001Y-66725001D01*
X134725001Y-66725001D02*
X133900000Y-65900000D01*
X133900000Y-82900000D02*
X134725001Y-82074999D01*
X133900000Y-82900000D02*
X144100000Y-82900000D01*
X124900000Y-99900000D02*
X135100000Y-99900000D01*
X127974999Y-96825001D02*
X124900000Y-99900000D01*
X127974999Y-88825001D02*
X127974999Y-96825001D01*
X133900000Y-82900000D02*
X127974999Y-88825001D01*
X46611400Y-43302000D02*
X51227971Y-38685429D01*
X51227971Y-35378839D02*
X51227971Y-34727971D01*
X51227971Y-34727971D02*
X51227972Y-23065618D01*
X51227971Y-38685429D02*
X51227971Y-35378839D01*
X51227971Y-37282429D02*
X51227971Y-34727971D01*
%TO.N,Col5*%
X52067180Y-21590000D02*
X52324000Y-21590000D01*
X50777963Y-22879217D02*
X52067180Y-21590000D01*
X52324000Y-21590000D02*
X148590000Y-21590000D01*
X151900000Y-31900000D02*
X162100000Y-31900000D01*
X152725001Y-48074999D02*
X151900000Y-48900000D01*
X152725001Y-32725001D02*
X152725001Y-48074999D01*
X151900000Y-31900000D02*
X152725001Y-32725001D01*
X152725001Y-22905001D02*
X151410000Y-21590000D01*
X152725001Y-31074999D02*
X152725001Y-22905001D01*
X151900000Y-31900000D02*
X152725001Y-31074999D01*
X148590000Y-21590000D02*
X151410000Y-21590000D01*
X151900000Y-48900000D02*
X162100000Y-48900000D01*
X152725001Y-65074999D02*
X151900000Y-65900000D01*
X152725001Y-49725001D02*
X152725001Y-65074999D01*
X151900000Y-48900000D02*
X152725001Y-49725001D01*
X152725001Y-82074999D02*
X151900000Y-82900000D01*
X152725001Y-66725001D02*
X152725001Y-82074999D01*
X151900000Y-65900000D02*
X152725001Y-66725001D01*
X151900000Y-65900000D02*
X162100000Y-65900000D01*
X151900000Y-82900000D02*
X162100000Y-82900000D01*
X147400000Y-99900000D02*
X157600000Y-99900000D01*
X150474999Y-96825001D02*
X147400000Y-99900000D01*
X150474999Y-84325001D02*
X150474999Y-96825001D01*
X151900000Y-82900000D02*
X150474999Y-84325001D01*
X50777963Y-36595437D02*
X50777963Y-31722037D01*
X46611400Y-40762000D02*
X50777963Y-36595437D01*
X50777963Y-31722037D02*
X50777963Y-22879217D01*
X50777963Y-35192437D02*
X50777963Y-31722037D01*
%TD*%
M02*
