%TF.GenerationSoftware,KiCad,Pcbnew,(5.1.9)-1*%
%TF.CreationDate,2022-03-08T16:30:03+11:00*%
%TF.ProjectId,fuse,66757365-2e6b-4696-9361-645f70636258,rev?*%
%TF.SameCoordinates,Original*%
%TF.FileFunction,Copper,L1,Top*%
%TF.FilePolarity,Positive*%
%FSLAX46Y46*%
G04 Gerber Fmt 4.6, Leading zero omitted, Abs format (unit mm)*
G04 Created by KiCad (PCBNEW (5.1.9)-1) date 2022-03-08 16:30:03*
%MOMM*%
%LPD*%
G01*
G04 APERTURE LIST*
%TA.AperFunction,ComponentPad*%
%ADD10C,3.000000*%
%TD*%
%TA.AperFunction,ComponentPad*%
%ADD11O,2.200000X1.600000*%
%TD*%
%TA.AperFunction,ComponentPad*%
%ADD12O,2.200000X1.500000*%
%TD*%
%TA.AperFunction,ComponentPad*%
%ADD13O,1.400000X1.400000*%
%TD*%
%TA.AperFunction,ComponentPad*%
%ADD14C,1.400000*%
%TD*%
%TA.AperFunction,ComponentPad*%
%ADD15C,2.000000*%
%TD*%
%TA.AperFunction,ComponentPad*%
%ADD16C,1.524000*%
%TD*%
%TA.AperFunction,ComponentPad*%
%ADD17C,1.600000*%
%TD*%
%TA.AperFunction,Conductor*%
%ADD18C,0.250000*%
%TD*%
G04 APERTURE END LIST*
D10*
%TO.P,REF\u002A\u002A,1*%
%TO.N,N/C*%
X67000000Y-88000000D03*
%TD*%
%TO.P,REF\u002A\u002A,1*%
%TO.N,N/C*%
X148000000Y-87000000D03*
%TD*%
%TO.P,REF\u002A\u002A,1*%
%TO.N,N/C*%
X148000000Y-36500000D03*
%TD*%
%TO.P,REF\u002A\u002A,1*%
%TO.N,N/C*%
X76000000Y-36500000D03*
%TD*%
D11*
%TO.P,SW42,1*%
%TO.N,Col2*%
X99100000Y-99900000D03*
X88900000Y-99900000D03*
D12*
%TO.P,SW42,2*%
%TO.N,Net-(D42-Pad2)*%
X94000000Y-101900000D03*
%TD*%
D11*
%TO.P,SW22,1*%
%TO.N,Col2*%
X108100000Y-65900000D03*
X97900000Y-65900000D03*
D12*
%TO.P,SW22,2*%
%TO.N,Net-(D22-Pad2)*%
X103000000Y-67900000D03*
%TD*%
D11*
%TO.P,SW23,1*%
%TO.N,Col3*%
X126100000Y-65900000D03*
X115900000Y-65900000D03*
D12*
%TO.P,SW23,2*%
%TO.N,Net-(D23-Pad2)*%
X121000000Y-67900000D03*
%TD*%
D11*
%TO.P,SW24,1*%
%TO.N,Col4*%
X144100000Y-65900000D03*
X133900000Y-65900000D03*
D12*
%TO.P,SW24,2*%
%TO.N,Net-(D24-Pad2)*%
X139000000Y-67900000D03*
%TD*%
D11*
%TO.P,SW31,1*%
%TO.N,Col1*%
X90100000Y-82900000D03*
X79900000Y-82900000D03*
D12*
%TO.P,SW31,2*%
%TO.N,Net-(D31-Pad2)*%
X85000000Y-84900000D03*
%TD*%
D11*
%TO.P,SW21,1*%
%TO.N,Col1*%
X90100000Y-65900000D03*
X79900000Y-65900000D03*
D12*
%TO.P,SW21,2*%
%TO.N,Net-(D21-Pad2)*%
X85000000Y-67900000D03*
%TD*%
D11*
%TO.P,SW10,1*%
%TO.N,Col0*%
X67600000Y-48900000D03*
X57400000Y-48900000D03*
D12*
%TO.P,SW10,2*%
%TO.N,Net-(D10-Pad2)*%
X62500000Y-50900000D03*
%TD*%
D11*
%TO.P,SW13,1*%
%TO.N,Col3*%
X126100000Y-48900000D03*
X115900000Y-48900000D03*
D12*
%TO.P,SW13,2*%
%TO.N,Net-(D13-Pad2)*%
X121000000Y-50900000D03*
%TD*%
D13*
%TO.P,D0,2*%
%TO.N,Net-(D0-Pad2)*%
X31361000Y-70755000D03*
D14*
%TO.P,D0,1*%
%TO.N,Row0*%
X31361000Y-65675000D03*
%TD*%
D13*
%TO.P,D1,2*%
%TO.N,Net-(D1-Pad2)*%
X33901000Y-70755000D03*
D14*
%TO.P,D1,1*%
%TO.N,Row0*%
X33901000Y-65675000D03*
%TD*%
D13*
%TO.P,D2,2*%
%TO.N,Net-(D2-Pad2)*%
X36441000Y-70755000D03*
D14*
%TO.P,D2,1*%
%TO.N,Row0*%
X36441000Y-65675000D03*
%TD*%
D13*
%TO.P,D3,2*%
%TO.N,Net-(D3-Pad2)*%
X41521000Y-70755000D03*
D14*
%TO.P,D3,1*%
%TO.N,Row0*%
X41521000Y-65675000D03*
%TD*%
D13*
%TO.P,D4,2*%
%TO.N,Net-(D4-Pad2)*%
X44061000Y-70755000D03*
D14*
%TO.P,D4,1*%
%TO.N,Row0*%
X44061000Y-65675000D03*
%TD*%
D13*
%TO.P,D5,2*%
%TO.N,Net-(D5-Pad2)*%
X46601000Y-70755000D03*
D14*
%TO.P,D5,1*%
%TO.N,Row0*%
X46601000Y-65675000D03*
%TD*%
D13*
%TO.P,D10,2*%
%TO.N,Net-(D10-Pad2)*%
X31361000Y-78375000D03*
D14*
%TO.P,D10,1*%
%TO.N,Row1*%
X31361000Y-73295000D03*
%TD*%
D13*
%TO.P,D11,2*%
%TO.N,Net-(D11-Pad2)*%
X33901000Y-78375000D03*
D14*
%TO.P,D11,1*%
%TO.N,Row1*%
X33901000Y-73295000D03*
%TD*%
D13*
%TO.P,D12,2*%
%TO.N,Net-(D12-Pad2)*%
X36441000Y-78375000D03*
D14*
%TO.P,D12,1*%
%TO.N,Row1*%
X36441000Y-73295000D03*
%TD*%
D13*
%TO.P,D13,2*%
%TO.N,Net-(D13-Pad2)*%
X41521000Y-78375000D03*
D14*
%TO.P,D13,1*%
%TO.N,Row1*%
X41521000Y-73295000D03*
%TD*%
D13*
%TO.P,D14,2*%
%TO.N,Net-(D14-Pad2)*%
X44061000Y-78375000D03*
D14*
%TO.P,D14,1*%
%TO.N,Row1*%
X44061000Y-73295000D03*
%TD*%
D13*
%TO.P,D15,2*%
%TO.N,Net-(D15-Pad2)*%
X46601000Y-78375000D03*
D14*
%TO.P,D15,1*%
%TO.N,Row1*%
X46601000Y-73295000D03*
%TD*%
D13*
%TO.P,D20,2*%
%TO.N,Net-(D20-Pad2)*%
X31361000Y-85995000D03*
D14*
%TO.P,D20,1*%
%TO.N,Row2*%
X31361000Y-80915000D03*
%TD*%
D13*
%TO.P,D21,2*%
%TO.N,Net-(D21-Pad2)*%
X33901000Y-85995000D03*
D14*
%TO.P,D21,1*%
%TO.N,Row2*%
X33901000Y-80915000D03*
%TD*%
D13*
%TO.P,D22,2*%
%TO.N,Net-(D22-Pad2)*%
X36441000Y-85995000D03*
D14*
%TO.P,D22,1*%
%TO.N,Row2*%
X36441000Y-80915000D03*
%TD*%
D13*
%TO.P,D23,2*%
%TO.N,Net-(D23-Pad2)*%
X41521000Y-85995000D03*
D14*
%TO.P,D23,1*%
%TO.N,Row2*%
X41521000Y-80915000D03*
%TD*%
D13*
%TO.P,D24,2*%
%TO.N,Net-(D24-Pad2)*%
X44061000Y-85995000D03*
D14*
%TO.P,D24,1*%
%TO.N,Row2*%
X44061000Y-80915000D03*
%TD*%
D13*
%TO.P,D25,2*%
%TO.N,Net-(D25-Pad2)*%
X46601000Y-85995000D03*
D14*
%TO.P,D25,1*%
%TO.N,Row2*%
X46601000Y-80915000D03*
%TD*%
D13*
%TO.P,D30,2*%
%TO.N,Net-(D30-Pad2)*%
X31361000Y-93615000D03*
D14*
%TO.P,D30,1*%
%TO.N,Row3*%
X31361000Y-88535000D03*
%TD*%
D13*
%TO.P,D31,2*%
%TO.N,Net-(D31-Pad2)*%
X33901000Y-93615000D03*
D14*
%TO.P,D31,1*%
%TO.N,Row3*%
X33901000Y-88535000D03*
%TD*%
D13*
%TO.P,D32,2*%
%TO.N,Net-(D32-Pad2)*%
X36441000Y-93615000D03*
D14*
%TO.P,D32,1*%
%TO.N,Row3*%
X36441000Y-88535000D03*
%TD*%
D13*
%TO.P,D33,2*%
%TO.N,Net-(D33-Pad2)*%
X41521000Y-93615000D03*
D14*
%TO.P,D33,1*%
%TO.N,Row3*%
X41521000Y-88535000D03*
%TD*%
D13*
%TO.P,D34,2*%
%TO.N,Net-(D34-Pad2)*%
X44061000Y-93615000D03*
D14*
%TO.P,D34,1*%
%TO.N,Row3*%
X44061000Y-88535000D03*
%TD*%
D13*
%TO.P,D35,2*%
%TO.N,Net-(D35-Pad2)*%
X46601000Y-93615000D03*
D14*
%TO.P,D35,1*%
%TO.N,Row3*%
X46601000Y-88535000D03*
%TD*%
D13*
%TO.P,D40,2*%
%TO.N,Net-(D40-Pad2)*%
X46601000Y-101235000D03*
D14*
%TO.P,D40,1*%
%TO.N,Row4*%
X46601000Y-96155000D03*
%TD*%
D13*
%TO.P,D41,2*%
%TO.N,Net-(D41-Pad2)*%
X44061000Y-101235000D03*
D14*
%TO.P,D41,1*%
%TO.N,Row4*%
X44061000Y-96155000D03*
%TD*%
D13*
%TO.P,D42,2*%
%TO.N,Net-(D42-Pad2)*%
X41521000Y-101235000D03*
D14*
%TO.P,D42,1*%
%TO.N,Row4*%
X41521000Y-96155000D03*
%TD*%
D13*
%TO.P,D43,2*%
%TO.N,Net-(D43-Pad2)*%
X36441000Y-101235000D03*
D14*
%TO.P,D43,1*%
%TO.N,Row4*%
X36441000Y-96155000D03*
%TD*%
D13*
%TO.P,D44,2*%
%TO.N,Net-(D44-Pad2)*%
X33901000Y-101235000D03*
D14*
%TO.P,D44,1*%
%TO.N,Row4*%
X33901000Y-96155000D03*
%TD*%
D13*
%TO.P,D45,2*%
%TO.N,Net-(D45-Pad2)*%
X31361000Y-101235000D03*
D14*
%TO.P,D45,1*%
%TO.N,Row4*%
X31361000Y-96155000D03*
%TD*%
D15*
%TO.P,Reset1,2*%
%TO.N,GND*%
X35750000Y-62000000D03*
%TO.P,Reset1,1*%
%TO.N,RESET*%
X42250000Y-62000000D03*
%TD*%
D16*
%TO.P,U1,1*%
%TO.N,Net-(U1-Pad1)*%
X46611400Y-25522000D03*
%TO.P,U1,2*%
%TO.N,Net-(U1-Pad2)*%
X46611400Y-28062000D03*
%TO.P,U1,3*%
%TO.N,Net-(U1-Pad3)*%
X46611400Y-30602000D03*
%TO.P,U1,4*%
%TO.N,Net-(U1-Pad4)*%
X46611400Y-33142000D03*
%TO.P,U1,5*%
%TO.N,Net-(U1-Pad5)*%
X46611400Y-35682000D03*
%TO.P,U1,6*%
%TO.N,Net-(U1-Pad6)*%
X46611400Y-38222000D03*
%TO.P,U1,7*%
%TO.N,Col5*%
X46611400Y-40762000D03*
%TO.P,U1,8*%
%TO.N,Col4*%
X46611400Y-43302000D03*
%TO.P,U1,9*%
%TO.N,Col3*%
X46611400Y-45842000D03*
%TO.P,U1,10*%
%TO.N,Col2*%
X46611400Y-48382000D03*
%TO.P,U1,11*%
%TO.N,Col1*%
X46611400Y-50922000D03*
%TO.P,U1,12*%
%TO.N,Col0*%
X46611400Y-53462000D03*
%TO.P,U1,13*%
%TO.N,Row0*%
X31391400Y-53462000D03*
%TO.P,U1,14*%
%TO.N,Row1*%
X31391400Y-50922000D03*
%TO.P,U1,15*%
%TO.N,Row2*%
X31391400Y-48382000D03*
%TO.P,U1,16*%
%TO.N,Row3*%
X31391400Y-45842000D03*
%TO.P,U1,17*%
%TO.N,Row4*%
X31391400Y-43302000D03*
%TO.P,U1,18*%
%TO.N,Net-(U1-Pad18)*%
X31391400Y-40762000D03*
%TO.P,U1,19*%
%TO.N,Net-(U1-Pad19)*%
X31391400Y-38222000D03*
%TO.P,U1,20*%
%TO.N,Net-(U1-Pad20)*%
X31391400Y-35682000D03*
%TO.P,U1,21*%
%TO.N,Net-(U1-Pad21)*%
X31391400Y-33142000D03*
%TO.P,U1,22*%
%TO.N,RESET*%
X31391400Y-30602000D03*
%TO.P,U1,23*%
%TO.N,GND*%
X31391400Y-28062000D03*
%TO.P,U1,24*%
%TO.N,Net-(U1-Pad24)*%
X31391400Y-25522000D03*
%TO.P,U1,25*%
%TO.N,B-*%
X31391400Y-23022000D03*
%TO.P,U1,26*%
%TO.N,B+*%
X46611400Y-23022000D03*
%TD*%
D11*
%TO.P,SW0,1*%
%TO.N,Col0*%
X67600000Y-31900000D03*
X57400000Y-31900000D03*
D12*
%TO.P,SW0,2*%
%TO.N,Net-(D0-Pad2)*%
X62500000Y-33900000D03*
%TD*%
D11*
%TO.P,SW1,1*%
%TO.N,Col1*%
X90100000Y-31900000D03*
X79900000Y-31900000D03*
D12*
%TO.P,SW1,2*%
%TO.N,Net-(D1-Pad2)*%
X85000000Y-33900000D03*
%TD*%
D11*
%TO.P,SW2,1*%
%TO.N,Col2*%
X108100000Y-31900000D03*
X97900000Y-31900000D03*
D12*
%TO.P,SW2,2*%
%TO.N,Net-(D2-Pad2)*%
X103000000Y-33900000D03*
%TD*%
D11*
%TO.P,SW3,1*%
%TO.N,Col3*%
X126100000Y-31900000D03*
X115900000Y-31900000D03*
D12*
%TO.P,SW3,2*%
%TO.N,Net-(D3-Pad2)*%
X121000000Y-33900000D03*
%TD*%
D11*
%TO.P,SW4,1*%
%TO.N,Col4*%
X144100000Y-31900000D03*
X133900000Y-31900000D03*
D12*
%TO.P,SW4,2*%
%TO.N,Net-(D4-Pad2)*%
X139000000Y-33900000D03*
%TD*%
D11*
%TO.P,SW5,1*%
%TO.N,Col5*%
X162100000Y-31900000D03*
X151900000Y-31900000D03*
D12*
%TO.P,SW5,2*%
%TO.N,Net-(D5-Pad2)*%
X157000000Y-33900000D03*
%TD*%
D11*
%TO.P,SW11,1*%
%TO.N,Col1*%
X90100000Y-48900000D03*
X79900000Y-48900000D03*
D12*
%TO.P,SW11,2*%
%TO.N,Net-(D11-Pad2)*%
X85000000Y-50900000D03*
%TD*%
D11*
%TO.P,SW12,1*%
%TO.N,Col2*%
X108100000Y-48900000D03*
X97900000Y-48900000D03*
D12*
%TO.P,SW12,2*%
%TO.N,Net-(D12-Pad2)*%
X103000000Y-50900000D03*
%TD*%
D11*
%TO.P,SW14,1*%
%TO.N,Col4*%
X144100000Y-48900000D03*
X133900000Y-48900000D03*
D12*
%TO.P,SW14,2*%
%TO.N,Net-(D14-Pad2)*%
X139000000Y-50900000D03*
%TD*%
D11*
%TO.P,SW15,1*%
%TO.N,Col5*%
X162100000Y-48900000D03*
X151900000Y-48900000D03*
D12*
%TO.P,SW15,2*%
%TO.N,Net-(D15-Pad2)*%
X157000000Y-50900000D03*
%TD*%
D11*
%TO.P,SW20,1*%
%TO.N,Col0*%
X67600000Y-65900000D03*
X57400000Y-65900000D03*
D12*
%TO.P,SW20,2*%
%TO.N,Net-(D20-Pad2)*%
X62500000Y-67900000D03*
%TD*%
D11*
%TO.P,SW25,1*%
%TO.N,Col5*%
X162100000Y-65900000D03*
X151900000Y-65900000D03*
D12*
%TO.P,SW25,2*%
%TO.N,Net-(D25-Pad2)*%
X157000000Y-67900000D03*
%TD*%
D11*
%TO.P,SW30,1*%
%TO.N,Col0*%
X67600000Y-82900000D03*
X57400000Y-82900000D03*
D12*
%TO.P,SW30,2*%
%TO.N,Net-(D30-Pad2)*%
X62500000Y-84900000D03*
%TD*%
D11*
%TO.P,SW32,1*%
%TO.N,Col2*%
X108100000Y-82900000D03*
X97900000Y-82900000D03*
D12*
%TO.P,SW32,2*%
%TO.N,Net-(D32-Pad2)*%
X103000000Y-84900000D03*
%TD*%
D11*
%TO.P,SW33,1*%
%TO.N,Col3*%
X126100000Y-82900000D03*
X115900000Y-82900000D03*
D12*
%TO.P,SW33,2*%
%TO.N,Net-(D33-Pad2)*%
X121000000Y-84900000D03*
%TD*%
D11*
%TO.P,SW34,1*%
%TO.N,Col4*%
X144100000Y-82900000D03*
X133900000Y-82900000D03*
D12*
%TO.P,SW34,2*%
%TO.N,Net-(D34-Pad2)*%
X139000000Y-84900000D03*
%TD*%
D11*
%TO.P,SW35,1*%
%TO.N,Col5*%
X162100000Y-82900000D03*
X151900000Y-82900000D03*
D12*
%TO.P,SW35,2*%
%TO.N,Net-(D35-Pad2)*%
X157000000Y-84900000D03*
%TD*%
D11*
%TO.P,SW40,1*%
%TO.N,Col0*%
X63100000Y-99900000D03*
X52900000Y-99900000D03*
D12*
%TO.P,SW40,2*%
%TO.N,Net-(D40-Pad2)*%
X58000000Y-101900000D03*
%TD*%
D11*
%TO.P,SW41,1*%
%TO.N,Col1*%
X81100000Y-99900000D03*
X70900000Y-99900000D03*
D12*
%TO.P,SW41,2*%
%TO.N,Net-(D41-Pad2)*%
X76000000Y-101900000D03*
%TD*%
D11*
%TO.P,SW43,1*%
%TO.N,Col3*%
X117100000Y-99900000D03*
X106900000Y-99900000D03*
D12*
%TO.P,SW43,2*%
%TO.N,Net-(D43-Pad2)*%
X112000000Y-101900000D03*
%TD*%
D11*
%TO.P,SW44,1*%
%TO.N,Col4*%
X135100000Y-99900000D03*
X124900000Y-99900000D03*
D12*
%TO.P,SW44,2*%
%TO.N,Net-(D44-Pad2)*%
X130000000Y-101900000D03*
%TD*%
D11*
%TO.P,SW45,1*%
%TO.N,Col5*%
X157600000Y-99900000D03*
X147400000Y-99900000D03*
D12*
%TO.P,SW45,2*%
%TO.N,Net-(D45-Pad2)*%
X152500000Y-101900000D03*
%TD*%
D17*
%TO.P,Power1,1*%
%TO.N,B-*%
X36500000Y-57500000D03*
%TO.P,Power1,2*%
%TO.N,Net-(Power1-Pad2)*%
X39000000Y-57500000D03*
%TO.P,Power1,3*%
%TO.N,Net-(Power1-Pad3)*%
X41500000Y-57500000D03*
%TD*%
D16*
%TO.P,U3,1*%
%TO.N,Net-(Power1-Pad2)*%
X39000000Y-53500000D03*
%TD*%
%TO.P,U4,1*%
%TO.N,B+*%
X42500000Y-53500000D03*
%TD*%
D18*
%TO.N,Row0*%
X31361000Y-65675000D02*
X33901000Y-65675000D01*
X33901000Y-65675000D02*
X36441000Y-65675000D01*
X36441000Y-65675000D02*
X41521000Y-65675000D01*
X41521000Y-65675000D02*
X44061000Y-65675000D01*
X44061000Y-65675000D02*
X46601000Y-65675000D01*
%TO.N,Row1*%
X31361000Y-73295000D02*
X33901000Y-73295000D01*
X33901000Y-73295000D02*
X36441000Y-73295000D01*
X36441000Y-73295000D02*
X41521000Y-73295000D01*
X41521000Y-73295000D02*
X44061000Y-73295000D01*
X44061000Y-73295000D02*
X46601000Y-73295000D01*
%TO.N,Row2*%
X46601000Y-80915000D02*
X44061000Y-80915000D01*
X44061000Y-80915000D02*
X41521000Y-80915000D01*
X36441000Y-80915000D02*
X41521000Y-80915000D01*
X36441000Y-80915000D02*
X33901000Y-80915000D01*
X33901000Y-80915000D02*
X31361000Y-80915000D01*
%TO.N,Row3*%
X31361000Y-88535000D02*
X33901000Y-88535000D01*
X33901000Y-88535000D02*
X36441000Y-88535000D01*
X36441000Y-88535000D02*
X41521000Y-88535000D01*
X41521000Y-88535000D02*
X44061000Y-88535000D01*
X44061000Y-88535000D02*
X46601000Y-88535000D01*
%TO.N,Row4*%
X31361000Y-96155000D02*
X33901000Y-96155000D01*
X36441000Y-96155000D02*
X33901000Y-96155000D01*
X36441000Y-96155000D02*
X41521000Y-96155000D01*
X41521000Y-96155000D02*
X44061000Y-96155000D01*
X44061000Y-96155000D02*
X46601000Y-96155000D01*
%TO.N,B+*%
X42500000Y-27133400D02*
X42500000Y-53500000D01*
X46611400Y-23022000D02*
X42500000Y-27133400D01*
%TO.N,Net-(D0-Pad2)*%
X50167900Y-43170050D02*
X54948000Y-38389950D01*
X50167897Y-46549600D02*
X50167900Y-43170050D01*
X31361000Y-70755000D02*
X34681245Y-67434755D01*
X59437950Y-33900000D02*
X54948000Y-38389950D01*
X62500000Y-33900000D02*
X59437950Y-33900000D01*
X50065245Y-67434755D02*
X50167897Y-67332103D01*
X34681245Y-67434755D02*
X50065245Y-67434755D01*
X50167897Y-67332103D02*
X50167897Y-46549600D01*
%TO.N,Net-(D1-Pad2)*%
X80060040Y-38839960D02*
X85000000Y-33900000D01*
X55134400Y-38839960D02*
X80060040Y-38839960D01*
X50617909Y-43356451D02*
X55134400Y-38839960D01*
X50617907Y-46736000D02*
X50617909Y-43356451D01*
X33901000Y-70755000D02*
X36771235Y-67884765D01*
X50615235Y-67884765D02*
X50617907Y-67882093D01*
X36771235Y-67884765D02*
X50615235Y-67884765D01*
X50617907Y-67882093D02*
X50617907Y-46736000D01*
%TO.N,Net-(D2-Pad2)*%
X97610030Y-39289970D02*
X103000000Y-33900000D01*
X55320800Y-39289970D02*
X97610030Y-39289970D01*
X51067918Y-43542852D02*
X55320800Y-39289970D01*
X36441000Y-70755000D02*
X38861225Y-68334775D01*
X50801635Y-68334775D02*
X51067917Y-68068493D01*
X38861225Y-68334775D02*
X50801635Y-68334775D01*
X51067917Y-68067917D02*
X51067918Y-43542852D01*
X51067917Y-68068493D02*
X51067917Y-68067917D01*
%TO.N,Net-(D3-Pad2)*%
X115160020Y-39739980D02*
X121000000Y-33900000D01*
X55507200Y-39739980D02*
X115160020Y-39739980D01*
X51517927Y-43729253D02*
X55507200Y-39739980D01*
X41521000Y-70755000D02*
X43491215Y-68784785D01*
X43491215Y-68784785D02*
X51215215Y-68784785D01*
X51215215Y-68784785D02*
X51517926Y-68482074D01*
X51517926Y-68482074D02*
X51517927Y-43729253D01*
%TO.N,Net-(D4-Pad2)*%
X132710010Y-40189990D02*
X139000000Y-33900000D01*
X55693600Y-40189990D02*
X132710010Y-40189990D01*
X51967936Y-43915654D02*
X55693600Y-40189990D01*
X44061000Y-70755000D02*
X45581205Y-69234795D01*
X51967936Y-69032064D02*
X51967936Y-68532064D01*
X51765205Y-69234795D02*
X51967936Y-69032064D01*
X45581205Y-69234795D02*
X51765205Y-69234795D01*
X51967936Y-68532064D02*
X51967936Y-43915654D01*
%TO.N,Net-(D5-Pad2)*%
X52417945Y-44102055D02*
X55880000Y-40640000D01*
X147460000Y-40640000D02*
X55880000Y-40640000D01*
X157000000Y-34000000D02*
X150360000Y-40640000D01*
X157000000Y-33900000D02*
X157000000Y-34000000D01*
X150360000Y-40640000D02*
X147460000Y-40640000D01*
X52417945Y-69218465D02*
X52417945Y-68582055D01*
X50881410Y-70755000D02*
X52417945Y-69218465D01*
X46601000Y-70755000D02*
X50881410Y-70755000D01*
X52417945Y-68582055D02*
X52417945Y-44102055D01*
%TO.N,Net-(D10-Pad2)*%
X58539950Y-54860050D02*
X62500000Y-50900000D01*
X58539950Y-54864000D02*
X58539950Y-54860050D01*
X52867955Y-60535995D02*
X58539950Y-54864000D01*
X52867955Y-69404865D02*
X52867955Y-60535995D01*
X46909712Y-75363108D02*
X52867955Y-69404865D01*
X34372892Y-75363108D02*
X46909712Y-75363108D01*
X31361000Y-78375000D02*
X34372892Y-75363108D01*
%TO.N,Net-(D11-Pad2)*%
X80550040Y-55349960D02*
X85000000Y-50900000D01*
X58690400Y-55349960D02*
X80550040Y-55349960D01*
X53317964Y-60722396D02*
X58690400Y-55349960D01*
X33901000Y-78375000D02*
X36462882Y-75813118D01*
X47096113Y-75813117D02*
X53317964Y-69591266D01*
X53317964Y-69591266D02*
X53317964Y-68817964D01*
X53317964Y-68817964D02*
X53317964Y-60722396D01*
X36462882Y-75813118D02*
X47096113Y-75813117D01*
%TO.N,Net-(D12-Pad2)*%
X58876800Y-55799970D02*
X98100030Y-55799970D01*
X98100030Y-55799970D02*
X103000000Y-50900000D01*
X53767973Y-60908797D02*
X58876800Y-55799970D01*
X36441000Y-78375000D02*
X38552872Y-76263128D01*
X53767973Y-69777667D02*
X53767973Y-68232027D01*
X47282512Y-76263128D02*
X53767973Y-69777667D01*
X38552872Y-76263128D02*
X47282512Y-76263128D01*
X53767973Y-68232027D02*
X53767973Y-60908797D01*
%TO.N,Net-(D13-Pad2)*%
X59063200Y-56249980D02*
X115650020Y-56249980D01*
X54217982Y-61095198D02*
X59063200Y-56249980D01*
X115650020Y-56249980D02*
X121000000Y-50900000D01*
X41521000Y-78375000D02*
X43182862Y-76713138D01*
X54217982Y-69964068D02*
X54217982Y-69282018D01*
X47468913Y-76713137D02*
X54217982Y-69964068D01*
X43182862Y-76713138D02*
X47468913Y-76713137D01*
X54217982Y-69282018D02*
X54217982Y-61095198D01*
%TO.N,Net-(D14-Pad2)*%
X59249600Y-56699990D02*
X133200010Y-56699990D01*
X54667991Y-61281599D02*
X59249600Y-56699990D01*
X133200010Y-56699990D02*
X139000000Y-50900000D01*
X44061000Y-78375000D02*
X45272435Y-77163565D01*
X54667991Y-70150469D02*
X54667991Y-69332009D01*
X45272435Y-77163565D02*
X47654895Y-77163565D01*
X47654895Y-77163565D02*
X54667991Y-70150469D01*
X54667991Y-69332009D02*
X54667991Y-61281599D01*
%TO.N,Net-(D15-Pad2)*%
X148082000Y-57150000D02*
X147950000Y-57150000D01*
X59436000Y-57150000D02*
X148082000Y-57150000D01*
X55118000Y-61468000D02*
X59436000Y-57150000D01*
X157000000Y-51000000D02*
X150850000Y-57150000D01*
X157000000Y-50900000D02*
X157000000Y-51000000D01*
X150850000Y-57150000D02*
X147950000Y-57150000D01*
X46601000Y-78375000D02*
X47079870Y-78375000D01*
X46601000Y-78375000D02*
X47125000Y-78375000D01*
X55118000Y-70382000D02*
X55118000Y-68382000D01*
X47125000Y-78375000D02*
X55118000Y-70382000D01*
X55118000Y-68382000D02*
X55118000Y-61468000D01*
%TO.N,Net-(D20-Pad2)*%
X31361000Y-85995000D02*
X34368245Y-82987755D01*
X34368245Y-82987755D02*
X46426195Y-82987755D01*
X61513950Y-67900000D02*
X62500000Y-67900000D01*
X46426195Y-82987755D02*
X61513950Y-67900000D01*
%TO.N,Net-(D21-Pad2)*%
X79770041Y-73129959D02*
X85000000Y-67900000D01*
X33901000Y-85995000D02*
X36458235Y-83437765D01*
X46562235Y-83437765D02*
X46612596Y-83437764D01*
X36458235Y-83437765D02*
X46562235Y-83437765D01*
X46562235Y-83437765D02*
X46612595Y-83437765D01*
X56920401Y-73129959D02*
X57629959Y-73129959D01*
X46612596Y-83437764D02*
X56920401Y-73129959D01*
X57629959Y-73129959D02*
X79770041Y-73129959D01*
X57420401Y-73129959D02*
X57629959Y-73129959D01*
%TO.N,Net-(D22-Pad2)*%
X97320031Y-73579969D02*
X103000000Y-67900000D01*
X57106801Y-73579969D02*
X58420031Y-73579969D01*
X46798995Y-83887775D02*
X57106801Y-73579969D01*
X38548225Y-83887775D02*
X46798995Y-83887775D01*
X36441000Y-85995000D02*
X38548225Y-83887775D01*
X58420031Y-73579969D02*
X97320031Y-73579969D01*
X57606801Y-73579969D02*
X58420031Y-73579969D01*
%TO.N,Net-(D23-Pad2)*%
X114870021Y-74029979D02*
X121000000Y-67900000D01*
X46985396Y-84337784D02*
X57293201Y-74029979D01*
X43178215Y-84337785D02*
X46985396Y-84337784D01*
X57293201Y-74029979D02*
X58029979Y-74029979D01*
X58029979Y-74029979D02*
X114870021Y-74029979D01*
X41521000Y-85995000D02*
X43178215Y-84337785D01*
X57793201Y-74029979D02*
X58029979Y-74029979D01*
%TO.N,Net-(D24-Pad2)*%
X132420011Y-74479989D02*
X139000000Y-67900000D01*
X57979601Y-74479989D02*
X132420011Y-74479989D01*
X57479598Y-74479990D02*
X59520010Y-74479990D01*
X47171795Y-84787793D02*
X57479598Y-74479990D01*
X47171795Y-84787795D02*
X47171795Y-84787793D01*
X45268205Y-84787795D02*
X47171795Y-84787795D01*
X44061000Y-85995000D02*
X45268205Y-84787795D01*
%TO.N,Net-(D25-Pad2)*%
X156960000Y-67900000D02*
X149930000Y-74930000D01*
X157000000Y-67900000D02*
X156960000Y-67900000D01*
X130048002Y-74930000D02*
X149930000Y-74930000D01*
X57666000Y-74930000D02*
X58570000Y-74930000D01*
X46601000Y-85995000D02*
X57666000Y-74930000D01*
X58570000Y-74930000D02*
X130048002Y-74930000D01*
X58166001Y-74929999D02*
X58570000Y-74930000D01*
%TO.N,Net-(D30-Pad2)*%
X58246000Y-89154000D02*
X62500000Y-84900000D01*
X48379951Y-89154000D02*
X58246000Y-89154000D01*
X46892396Y-90641555D02*
X48379951Y-89154000D01*
X34334445Y-90641555D02*
X46892396Y-90641555D01*
X31361000Y-93615000D02*
X34334445Y-90641555D01*
%TO.N,Net-(D31-Pad2)*%
X80275089Y-89624911D02*
X85000000Y-84900000D01*
X75124911Y-89624911D02*
X80275089Y-89624911D01*
X71000000Y-85500000D02*
X75124911Y-89624911D01*
X61395990Y-89604010D02*
X65500000Y-85500000D01*
X65500000Y-85500000D02*
X71000000Y-85500000D01*
X57895990Y-89604010D02*
X61395990Y-89604010D01*
X57875089Y-89624911D02*
X57895990Y-89604010D01*
X48545451Y-89624911D02*
X57875089Y-89624911D01*
X36424435Y-91091565D02*
X47078797Y-91091564D01*
X47078797Y-91091564D02*
X48545451Y-89624911D01*
X33901000Y-93615000D02*
X36424435Y-91091565D01*
%TO.N,Net-(D32-Pad2)*%
X36441000Y-93615000D02*
X38514425Y-91541575D01*
X46458425Y-91541575D02*
X46765196Y-91541575D01*
X38514425Y-91541575D02*
X46458425Y-91541575D01*
X46458427Y-91541573D02*
X46458425Y-91541575D01*
X48731851Y-90074921D02*
X48468241Y-90338531D01*
X48731851Y-90074921D02*
X97825079Y-90074921D01*
X97825079Y-90074921D02*
X103000000Y-84900000D01*
X48468241Y-90338531D02*
X47265196Y-91541573D01*
X46765198Y-91541573D02*
X46765196Y-91541575D01*
X47265196Y-91541573D02*
X46765198Y-91541573D01*
%TO.N,Net-(D33-Pad2)*%
X115375069Y-90524931D02*
X121000000Y-84900000D01*
X48918251Y-90524931D02*
X115375069Y-90524931D01*
X48654640Y-90788540D02*
X47443180Y-92000000D01*
X48918251Y-90524931D02*
X48654640Y-90788540D01*
X43136000Y-92000000D02*
X41521000Y-93615000D01*
X47443180Y-92000000D02*
X43136000Y-92000000D01*
%TO.N,Net-(D34-Pad2)*%
X49104650Y-90974940D02*
X132925060Y-90974940D01*
X132925060Y-90974940D02*
X139000000Y-84900000D01*
X49104650Y-90974940D02*
X47629580Y-92450010D01*
X45225990Y-92450010D02*
X44061000Y-93615000D01*
X47629580Y-92450010D02*
X45225990Y-92450010D01*
%TO.N,Net-(D35-Pad2)*%
X150475051Y-91424949D02*
X157000000Y-84900000D01*
X49291051Y-91424949D02*
X150475051Y-91424949D01*
X47315981Y-92900019D02*
X46601000Y-93615000D01*
X47815981Y-92900019D02*
X47315981Y-92900019D01*
X49291051Y-91424949D02*
X47815981Y-92900019D01*
%TO.N,Net-(D40-Pad2)*%
X57665000Y-102235000D02*
X58000000Y-101900000D01*
X57335000Y-101235000D02*
X58000000Y-101900000D01*
X46601000Y-101235000D02*
X57335000Y-101235000D01*
%TO.N,Net-(D41-Pad2)*%
X44061000Y-101235000D02*
X45086001Y-100209999D01*
X76000000Y-99000000D02*
X76000000Y-101900000D01*
X70674999Y-93674999D02*
X76000000Y-99000000D01*
X46608643Y-100209999D02*
X50500000Y-96318642D01*
X45086001Y-100209999D02*
X46608643Y-100209999D01*
X50825001Y-93674999D02*
X52674999Y-93674999D01*
X50500000Y-94000000D02*
X50825001Y-93674999D01*
X50500000Y-96318642D02*
X50500000Y-94000000D01*
X52674999Y-93674999D02*
X70674999Y-93674999D01*
X52375001Y-93674999D02*
X52674999Y-93674999D01*
%TO.N,Net-(D42-Pad2)*%
X87537991Y-93224989D02*
X82775011Y-93224989D01*
X87537991Y-93224989D02*
X86224989Y-93224989D01*
X94000000Y-99686998D02*
X87537991Y-93224989D01*
X94000000Y-101900000D02*
X94000000Y-99686998D01*
X82775011Y-93224989D02*
X86224989Y-93224989D01*
X46422244Y-99759988D02*
X50000000Y-96182232D01*
X42996011Y-99759989D02*
X46422244Y-99759988D01*
X41521000Y-101235000D02*
X42996011Y-99759989D01*
X52275011Y-93224989D02*
X82775011Y-93224989D01*
X52188601Y-93224989D02*
X52275011Y-93224989D01*
X50638601Y-93224989D02*
X50775011Y-93224989D01*
X50000000Y-96182232D02*
X50000000Y-93863590D01*
X50000000Y-93863590D02*
X50638601Y-93224989D01*
X50775011Y-93224989D02*
X52275011Y-93224989D01*
%TO.N,Net-(D43-Pad2)*%
X105087981Y-92774979D02*
X112000000Y-99686998D01*
X112000000Y-99686998D02*
X112000000Y-101900000D01*
X46235843Y-99309979D02*
X49500000Y-96045822D01*
X38366021Y-99309979D02*
X46235843Y-99309979D01*
X36441000Y-101235000D02*
X38366021Y-99309979D01*
X50452201Y-92774979D02*
X51725021Y-92774979D01*
X49500000Y-93727180D02*
X50452201Y-92774979D01*
X49500000Y-96045822D02*
X49500000Y-93727180D01*
X51725021Y-92774979D02*
X105087981Y-92774979D01*
%TO.N,Net-(D44-Pad2)*%
X130000000Y-99686998D02*
X122637971Y-92324969D01*
X130000000Y-101900000D02*
X130000000Y-99686998D01*
X46049444Y-98859968D02*
X49000000Y-95909412D01*
X36276031Y-98859969D02*
X46049444Y-98859968D01*
X33901000Y-101235000D02*
X36276031Y-98859969D01*
X122637971Y-92324969D02*
X52324969Y-92324969D01*
X50265801Y-92324969D02*
X52175031Y-92324969D01*
X49000000Y-93590770D02*
X50265801Y-92324969D01*
X49000000Y-95909412D02*
X49000000Y-93590770D01*
X52175031Y-92324969D02*
X51815801Y-92324969D01*
X52324969Y-92324969D02*
X52175031Y-92324969D01*
%TO.N,Net-(D45-Pad2)*%
X152500000Y-99686998D02*
X152500000Y-101900000D01*
X144687961Y-91874959D02*
X152500000Y-99686998D01*
X45863043Y-98409959D02*
X48500000Y-95773002D01*
X34186041Y-98409959D02*
X45863043Y-98409959D01*
X31361000Y-101235000D02*
X34186041Y-98409959D01*
X50079401Y-91874959D02*
X51874959Y-91874959D01*
X48500000Y-93454360D02*
X50079401Y-91874959D01*
X48500000Y-95773002D02*
X48500000Y-93454360D01*
X51874959Y-91874959D02*
X144687961Y-91874959D01*
%TO.N,B-*%
X36500000Y-28130600D02*
X31391400Y-23022000D01*
X36500000Y-57531000D02*
X36500000Y-28130600D01*
%TO.N,RESET*%
X40924999Y-63325001D02*
X42250000Y-62000000D01*
X34325001Y-63325001D02*
X40924999Y-63325001D01*
X30304399Y-31689001D02*
X30304399Y-59304399D01*
X30304399Y-59304399D02*
X34325001Y-63325001D01*
X31391400Y-30602000D02*
X30304399Y-31689001D01*
%TO.N,GND*%
X31391400Y-28062000D02*
X34000000Y-30670600D01*
X34000000Y-60250000D02*
X35750000Y-62000000D01*
X34000000Y-30670600D02*
X34000000Y-60250000D01*
%TO.N,Net-(Power1-Pad2)*%
X39000000Y-53500000D02*
X39000000Y-57531000D01*
%TD*%
M02*
