%TF.GenerationSoftware,KiCad,Pcbnew,(5.1.9)-1*%
%TF.CreationDate,2022-03-08T16:30:03+11:00*%
%TF.ProjectId,fuse,66757365-2e6b-4696-9361-645f70636258,rev?*%
%TF.SameCoordinates,Original*%
%TF.FileFunction,Legend,Bot*%
%TF.FilePolarity,Positive*%
%FSLAX46Y46*%
G04 Gerber Fmt 4.6, Leading zero omitted, Abs format (unit mm)*
G04 Created by KiCad (PCBNEW (5.1.9)-1) date 2022-03-08 16:30:03*
%MOMM*%
%LPD*%
G01*
G04 APERTURE LIST*
%ADD10C,0.150000*%
%ADD11C,0.120000*%
G04 APERTURE END LIST*
D10*
%TO.C,D0*%
X31361000Y-67815000D02*
X31861000Y-68715000D01*
X31861000Y-68715000D02*
X30861000Y-68715000D01*
X30861000Y-68715000D02*
X31361000Y-67815000D01*
X31861000Y-67715000D02*
X30861000Y-67715000D01*
D11*
X32281000Y-66295000D02*
X32281000Y-70135000D01*
X30441000Y-66295000D02*
X30441000Y-70135000D01*
D10*
%TO.C,D1*%
X33901000Y-67815000D02*
X34401000Y-68715000D01*
X34401000Y-68715000D02*
X33401000Y-68715000D01*
X33401000Y-68715000D02*
X33901000Y-67815000D01*
X34401000Y-67715000D02*
X33401000Y-67715000D01*
D11*
X34821000Y-66295000D02*
X34821000Y-70135000D01*
X32981000Y-66295000D02*
X32981000Y-70135000D01*
D10*
%TO.C,D2*%
X36441000Y-67815000D02*
X36941000Y-68715000D01*
X36941000Y-68715000D02*
X35941000Y-68715000D01*
X35941000Y-68715000D02*
X36441000Y-67815000D01*
X36941000Y-67715000D02*
X35941000Y-67715000D01*
D11*
X37361000Y-66295000D02*
X37361000Y-70135000D01*
X35521000Y-66295000D02*
X35521000Y-70135000D01*
D10*
%TO.C,D3*%
X41521000Y-67815000D02*
X42021000Y-68715000D01*
X42021000Y-68715000D02*
X41021000Y-68715000D01*
X41021000Y-68715000D02*
X41521000Y-67815000D01*
X42021000Y-67715000D02*
X41021000Y-67715000D01*
D11*
X42441000Y-66295000D02*
X42441000Y-70135000D01*
X40601000Y-66295000D02*
X40601000Y-70135000D01*
D10*
%TO.C,D4*%
X44061000Y-67815000D02*
X44561000Y-68715000D01*
X44561000Y-68715000D02*
X43561000Y-68715000D01*
X43561000Y-68715000D02*
X44061000Y-67815000D01*
X44561000Y-67715000D02*
X43561000Y-67715000D01*
D11*
X44981000Y-66295000D02*
X44981000Y-70135000D01*
X43141000Y-66295000D02*
X43141000Y-70135000D01*
D10*
%TO.C,D5*%
X46601000Y-67815000D02*
X47101000Y-68715000D01*
X47101000Y-68715000D02*
X46101000Y-68715000D01*
X46101000Y-68715000D02*
X46601000Y-67815000D01*
X47101000Y-67715000D02*
X46101000Y-67715000D01*
D11*
X47521000Y-66295000D02*
X47521000Y-70135000D01*
X45681000Y-66295000D02*
X45681000Y-70135000D01*
D10*
%TO.C,D10*%
X31361000Y-75435000D02*
X31861000Y-76335000D01*
X31861000Y-76335000D02*
X30861000Y-76335000D01*
X30861000Y-76335000D02*
X31361000Y-75435000D01*
X31861000Y-75335000D02*
X30861000Y-75335000D01*
D11*
X32281000Y-73915000D02*
X32281000Y-77755000D01*
X30441000Y-73915000D02*
X30441000Y-77755000D01*
D10*
%TO.C,D11*%
X33901000Y-75435000D02*
X34401000Y-76335000D01*
X34401000Y-76335000D02*
X33401000Y-76335000D01*
X33401000Y-76335000D02*
X33901000Y-75435000D01*
X34401000Y-75335000D02*
X33401000Y-75335000D01*
D11*
X34821000Y-73915000D02*
X34821000Y-77755000D01*
X32981000Y-73915000D02*
X32981000Y-77755000D01*
D10*
%TO.C,D12*%
X36441000Y-75435000D02*
X36941000Y-76335000D01*
X36941000Y-76335000D02*
X35941000Y-76335000D01*
X35941000Y-76335000D02*
X36441000Y-75435000D01*
X36941000Y-75335000D02*
X35941000Y-75335000D01*
D11*
X37361000Y-73915000D02*
X37361000Y-77755000D01*
X35521000Y-73915000D02*
X35521000Y-77755000D01*
D10*
%TO.C,D13*%
X41521000Y-75435000D02*
X42021000Y-76335000D01*
X42021000Y-76335000D02*
X41021000Y-76335000D01*
X41021000Y-76335000D02*
X41521000Y-75435000D01*
X42021000Y-75335000D02*
X41021000Y-75335000D01*
D11*
X42441000Y-73915000D02*
X42441000Y-77755000D01*
X40601000Y-73915000D02*
X40601000Y-77755000D01*
D10*
%TO.C,D14*%
X44061000Y-75435000D02*
X44561000Y-76335000D01*
X44561000Y-76335000D02*
X43561000Y-76335000D01*
X43561000Y-76335000D02*
X44061000Y-75435000D01*
X44561000Y-75335000D02*
X43561000Y-75335000D01*
D11*
X44981000Y-73915000D02*
X44981000Y-77755000D01*
X43141000Y-73915000D02*
X43141000Y-77755000D01*
D10*
%TO.C,D15*%
X46601000Y-75435000D02*
X47101000Y-76335000D01*
X47101000Y-76335000D02*
X46101000Y-76335000D01*
X46101000Y-76335000D02*
X46601000Y-75435000D01*
X47101000Y-75335000D02*
X46101000Y-75335000D01*
D11*
X47521000Y-73915000D02*
X47521000Y-77755000D01*
X45681000Y-73915000D02*
X45681000Y-77755000D01*
D10*
%TO.C,D20*%
X31361000Y-83055000D02*
X31861000Y-83955000D01*
X31861000Y-83955000D02*
X30861000Y-83955000D01*
X30861000Y-83955000D02*
X31361000Y-83055000D01*
X31861000Y-82955000D02*
X30861000Y-82955000D01*
D11*
X32281000Y-81535000D02*
X32281000Y-85375000D01*
X30441000Y-81535000D02*
X30441000Y-85375000D01*
D10*
%TO.C,D21*%
X33901000Y-83055000D02*
X34401000Y-83955000D01*
X34401000Y-83955000D02*
X33401000Y-83955000D01*
X33401000Y-83955000D02*
X33901000Y-83055000D01*
X34401000Y-82955000D02*
X33401000Y-82955000D01*
D11*
X34821000Y-81535000D02*
X34821000Y-85375000D01*
X32981000Y-81535000D02*
X32981000Y-85375000D01*
D10*
%TO.C,D22*%
X36441000Y-83055000D02*
X36941000Y-83955000D01*
X36941000Y-83955000D02*
X35941000Y-83955000D01*
X35941000Y-83955000D02*
X36441000Y-83055000D01*
X36941000Y-82955000D02*
X35941000Y-82955000D01*
D11*
X37361000Y-81535000D02*
X37361000Y-85375000D01*
X35521000Y-81535000D02*
X35521000Y-85375000D01*
D10*
%TO.C,D23*%
X41521000Y-83055000D02*
X42021000Y-83955000D01*
X42021000Y-83955000D02*
X41021000Y-83955000D01*
X41021000Y-83955000D02*
X41521000Y-83055000D01*
X42021000Y-82955000D02*
X41021000Y-82955000D01*
D11*
X42441000Y-81535000D02*
X42441000Y-85375000D01*
X40601000Y-81535000D02*
X40601000Y-85375000D01*
D10*
%TO.C,D24*%
X44061000Y-83055000D02*
X44561000Y-83955000D01*
X44561000Y-83955000D02*
X43561000Y-83955000D01*
X43561000Y-83955000D02*
X44061000Y-83055000D01*
X44561000Y-82955000D02*
X43561000Y-82955000D01*
D11*
X44981000Y-81535000D02*
X44981000Y-85375000D01*
X43141000Y-81535000D02*
X43141000Y-85375000D01*
D10*
%TO.C,D25*%
X46601000Y-83055000D02*
X47101000Y-83955000D01*
X47101000Y-83955000D02*
X46101000Y-83955000D01*
X46101000Y-83955000D02*
X46601000Y-83055000D01*
X47101000Y-82955000D02*
X46101000Y-82955000D01*
D11*
X47521000Y-81535000D02*
X47521000Y-85375000D01*
X45681000Y-81535000D02*
X45681000Y-85375000D01*
D10*
%TO.C,D30*%
X31361000Y-90675000D02*
X31861000Y-91575000D01*
X31861000Y-91575000D02*
X30861000Y-91575000D01*
X30861000Y-91575000D02*
X31361000Y-90675000D01*
X31861000Y-90575000D02*
X30861000Y-90575000D01*
D11*
X32281000Y-89155000D02*
X32281000Y-92995000D01*
X30441000Y-89155000D02*
X30441000Y-92995000D01*
D10*
%TO.C,D31*%
X33901000Y-90675000D02*
X34401000Y-91575000D01*
X34401000Y-91575000D02*
X33401000Y-91575000D01*
X33401000Y-91575000D02*
X33901000Y-90675000D01*
X34401000Y-90575000D02*
X33401000Y-90575000D01*
D11*
X34821000Y-89155000D02*
X34821000Y-92995000D01*
X32981000Y-89155000D02*
X32981000Y-92995000D01*
D10*
%TO.C,D32*%
X36441000Y-90675000D02*
X36941000Y-91575000D01*
X36941000Y-91575000D02*
X35941000Y-91575000D01*
X35941000Y-91575000D02*
X36441000Y-90675000D01*
X36941000Y-90575000D02*
X35941000Y-90575000D01*
D11*
X37361000Y-89155000D02*
X37361000Y-92995000D01*
X35521000Y-89155000D02*
X35521000Y-92995000D01*
D10*
%TO.C,D33*%
X41521000Y-90675000D02*
X42021000Y-91575000D01*
X42021000Y-91575000D02*
X41021000Y-91575000D01*
X41021000Y-91575000D02*
X41521000Y-90675000D01*
X42021000Y-90575000D02*
X41021000Y-90575000D01*
D11*
X42441000Y-89155000D02*
X42441000Y-92995000D01*
X40601000Y-89155000D02*
X40601000Y-92995000D01*
D10*
%TO.C,D34*%
X44061000Y-90675000D02*
X44561000Y-91575000D01*
X44561000Y-91575000D02*
X43561000Y-91575000D01*
X43561000Y-91575000D02*
X44061000Y-90675000D01*
X44561000Y-90575000D02*
X43561000Y-90575000D01*
D11*
X44981000Y-89155000D02*
X44981000Y-92995000D01*
X43141000Y-89155000D02*
X43141000Y-92995000D01*
D10*
%TO.C,D35*%
X46601000Y-90675000D02*
X47101000Y-91575000D01*
X47101000Y-91575000D02*
X46101000Y-91575000D01*
X46101000Y-91575000D02*
X46601000Y-90675000D01*
X47101000Y-90575000D02*
X46101000Y-90575000D01*
D11*
X47521000Y-89155000D02*
X47521000Y-92995000D01*
X45681000Y-89155000D02*
X45681000Y-92995000D01*
D10*
%TO.C,D40*%
X46601000Y-98295000D02*
X47101000Y-99195000D01*
X47101000Y-99195000D02*
X46101000Y-99195000D01*
X46101000Y-99195000D02*
X46601000Y-98295000D01*
X47101000Y-98195000D02*
X46101000Y-98195000D01*
D11*
X47521000Y-96775000D02*
X47521000Y-100615000D01*
X45681000Y-96775000D02*
X45681000Y-100615000D01*
D10*
%TO.C,D41*%
X44061000Y-98295000D02*
X44561000Y-99195000D01*
X44561000Y-99195000D02*
X43561000Y-99195000D01*
X43561000Y-99195000D02*
X44061000Y-98295000D01*
X44561000Y-98195000D02*
X43561000Y-98195000D01*
D11*
X44981000Y-96775000D02*
X44981000Y-100615000D01*
X43141000Y-96775000D02*
X43141000Y-100615000D01*
D10*
%TO.C,D42*%
X41521000Y-98295000D02*
X42021000Y-99195000D01*
X42021000Y-99195000D02*
X41021000Y-99195000D01*
X41021000Y-99195000D02*
X41521000Y-98295000D01*
X42021000Y-98195000D02*
X41021000Y-98195000D01*
D11*
X42441000Y-96775000D02*
X42441000Y-100615000D01*
X40601000Y-96775000D02*
X40601000Y-100615000D01*
D10*
%TO.C,D43*%
X36441000Y-98295000D02*
X36941000Y-99195000D01*
X36941000Y-99195000D02*
X35941000Y-99195000D01*
X35941000Y-99195000D02*
X36441000Y-98295000D01*
X36941000Y-98195000D02*
X35941000Y-98195000D01*
D11*
X37361000Y-96775000D02*
X37361000Y-100615000D01*
X35521000Y-96775000D02*
X35521000Y-100615000D01*
D10*
%TO.C,D44*%
X33901000Y-98295000D02*
X34401000Y-99195000D01*
X34401000Y-99195000D02*
X33401000Y-99195000D01*
X33401000Y-99195000D02*
X33901000Y-98295000D01*
X34401000Y-98195000D02*
X33401000Y-98195000D01*
D11*
X34821000Y-96775000D02*
X34821000Y-100615000D01*
X32981000Y-96775000D02*
X32981000Y-100615000D01*
D10*
%TO.C,D45*%
X31361000Y-98295000D02*
X31861000Y-99195000D01*
X31861000Y-99195000D02*
X30861000Y-99195000D01*
X30861000Y-99195000D02*
X31361000Y-98295000D01*
X31861000Y-98195000D02*
X30861000Y-98195000D01*
D11*
X32281000Y-96775000D02*
X32281000Y-100615000D01*
X30441000Y-96775000D02*
X30441000Y-100615000D01*
D10*
%TO.C,Reset1*%
X42000000Y-60250000D02*
X42000000Y-60500000D01*
X36000000Y-60250000D02*
X42000000Y-60250000D01*
X36000000Y-60500000D02*
X36000000Y-60250000D01*
X36000000Y-63750000D02*
X36000000Y-63500000D01*
X42000000Y-63750000D02*
X36000000Y-63750000D01*
X42000000Y-63500000D02*
X42000000Y-63750000D01*
%TO.C,U1*%
X30250000Y-54600000D02*
X31100000Y-54600000D01*
X47750000Y-24400000D02*
X46950000Y-24400000D01*
X30250000Y-24400000D02*
X30250000Y-25250000D01*
X47750000Y-53750000D02*
X47750000Y-54600000D01*
X47750000Y-54600000D02*
X46890000Y-54600000D01*
X47750000Y-24400000D02*
X47750000Y-25250000D01*
X30250000Y-24400000D02*
X31100000Y-24400000D01*
X30250000Y-53700000D02*
X30250000Y-54600000D01*
X42750000Y-18800000D02*
X35250000Y-18800000D01*
X35250000Y-18800000D02*
X35250000Y-20100000D01*
X35250000Y-20100000D02*
X42750000Y-20100000D01*
X42750000Y-20100000D02*
X42750000Y-18800000D01*
D11*
%TO.C,Power1*%
X44800000Y-55500000D02*
X33200000Y-55500000D01*
X44800000Y-55500000D02*
X44800000Y-59500000D01*
X33200000Y-59500000D02*
X44800000Y-59500000D01*
X33200000Y-59500000D02*
X33200000Y-55500000D01*
%TO.C,Reset1*%
D10*
X40579380Y-62452380D02*
X40912714Y-61976190D01*
X41150809Y-62452380D02*
X41150809Y-61452380D01*
X40769857Y-61452380D01*
X40674619Y-61500000D01*
X40627000Y-61547619D01*
X40579380Y-61642857D01*
X40579380Y-61785714D01*
X40627000Y-61880952D01*
X40674619Y-61928571D01*
X40769857Y-61976190D01*
X41150809Y-61976190D01*
X40150809Y-61928571D02*
X39817476Y-61928571D01*
X39674619Y-62452380D02*
X40150809Y-62452380D01*
X40150809Y-61452380D01*
X39674619Y-61452380D01*
X39293666Y-62404761D02*
X39150809Y-62452380D01*
X38912714Y-62452380D01*
X38817476Y-62404761D01*
X38769857Y-62357142D01*
X38722238Y-62261904D01*
X38722238Y-62166666D01*
X38769857Y-62071428D01*
X38817476Y-62023809D01*
X38912714Y-61976190D01*
X39103190Y-61928571D01*
X39198428Y-61880952D01*
X39246047Y-61833333D01*
X39293666Y-61738095D01*
X39293666Y-61642857D01*
X39246047Y-61547619D01*
X39198428Y-61500000D01*
X39103190Y-61452380D01*
X38865095Y-61452380D01*
X38722238Y-61500000D01*
X38293666Y-61928571D02*
X37960333Y-61928571D01*
X37817476Y-62452380D02*
X38293666Y-62452380D01*
X38293666Y-61452380D01*
X37817476Y-61452380D01*
X37531761Y-61452380D02*
X36960333Y-61452380D01*
X37246047Y-62452380D02*
X37246047Y-61452380D01*
%TO.C,U1*%
D11*
X41396428Y-22839285D02*
X41396428Y-22089285D01*
X41146428Y-22625000D01*
X40896428Y-22089285D01*
X40896428Y-22839285D01*
X40539285Y-22839285D02*
X40539285Y-22339285D01*
X40539285Y-22089285D02*
X40575000Y-22125000D01*
X40539285Y-22160714D01*
X40503571Y-22125000D01*
X40539285Y-22089285D01*
X40539285Y-22160714D01*
X39860714Y-22803571D02*
X39932142Y-22839285D01*
X40075000Y-22839285D01*
X40146428Y-22803571D01*
X40182142Y-22767857D01*
X40217857Y-22696428D01*
X40217857Y-22482142D01*
X40182142Y-22410714D01*
X40146428Y-22375000D01*
X40075000Y-22339285D01*
X39932142Y-22339285D01*
X39860714Y-22375000D01*
X39539285Y-22839285D02*
X39539285Y-22339285D01*
X39539285Y-22482142D02*
X39503571Y-22410714D01*
X39467857Y-22375000D01*
X39396428Y-22339285D01*
X39325000Y-22339285D01*
X38967857Y-22839285D02*
X39039285Y-22803571D01*
X39075000Y-22767857D01*
X39110714Y-22696428D01*
X39110714Y-22482142D01*
X39075000Y-22410714D01*
X39039285Y-22375000D01*
X38967857Y-22339285D01*
X38860714Y-22339285D01*
X38789285Y-22375000D01*
X38753571Y-22410714D01*
X38717857Y-22482142D01*
X38717857Y-22696428D01*
X38753571Y-22767857D01*
X38789285Y-22803571D01*
X38860714Y-22839285D01*
X38967857Y-22839285D01*
X38396428Y-22089285D02*
X38396428Y-22696428D01*
X38360714Y-22767857D01*
X38325000Y-22803571D01*
X38253571Y-22839285D01*
X38110714Y-22839285D01*
X38039285Y-22803571D01*
X38003571Y-22767857D01*
X37967857Y-22696428D01*
X37967857Y-22089285D01*
X37646428Y-22803571D02*
X37539285Y-22839285D01*
X37360714Y-22839285D01*
X37289285Y-22803571D01*
X37253571Y-22767857D01*
X37217857Y-22696428D01*
X37217857Y-22625000D01*
X37253571Y-22553571D01*
X37289285Y-22517857D01*
X37360714Y-22482142D01*
X37503571Y-22446428D01*
X37575000Y-22410714D01*
X37610714Y-22375000D01*
X37646428Y-22303571D01*
X37646428Y-22232142D01*
X37610714Y-22160714D01*
X37575000Y-22125000D01*
X37503571Y-22089285D01*
X37325000Y-22089285D01*
X37217857Y-22125000D01*
X36646428Y-22446428D02*
X36539285Y-22482142D01*
X36503571Y-22517857D01*
X36467857Y-22589285D01*
X36467857Y-22696428D01*
X36503571Y-22767857D01*
X36539285Y-22803571D01*
X36610714Y-22839285D01*
X36896428Y-22839285D01*
X36896428Y-22089285D01*
X36646428Y-22089285D01*
X36575000Y-22125000D01*
X36539285Y-22160714D01*
X36503571Y-22232142D01*
X36503571Y-22303571D01*
X36539285Y-22375000D01*
X36575000Y-22410714D01*
X36646428Y-22446428D01*
X36896428Y-22446428D01*
D10*
X42500000Y-40452380D02*
X42500000Y-39452380D01*
X41928571Y-40452380D01*
X41928571Y-39452380D01*
X41452380Y-40452380D02*
X41452380Y-39785714D01*
X41452380Y-39452380D02*
X41500000Y-39500000D01*
X41452380Y-39547619D01*
X41404761Y-39500000D01*
X41452380Y-39452380D01*
X41452380Y-39547619D01*
X40547619Y-40404761D02*
X40642857Y-40452380D01*
X40833333Y-40452380D01*
X40928571Y-40404761D01*
X40976190Y-40357142D01*
X41023809Y-40261904D01*
X41023809Y-39976190D01*
X40976190Y-39880952D01*
X40928571Y-39833333D01*
X40833333Y-39785714D01*
X40642857Y-39785714D01*
X40547619Y-39833333D01*
X39738095Y-40404761D02*
X39833333Y-40452380D01*
X40023809Y-40452380D01*
X40119047Y-40404761D01*
X40166666Y-40309523D01*
X40166666Y-39928571D01*
X40119047Y-39833333D01*
X40023809Y-39785714D01*
X39833333Y-39785714D01*
X39738095Y-39833333D01*
X39690476Y-39928571D01*
X39690476Y-40023809D01*
X40166666Y-40119047D01*
X39261904Y-40357142D02*
X39214285Y-40404761D01*
X39261904Y-40452380D01*
X39309523Y-40404761D01*
X39261904Y-40357142D01*
X39261904Y-40452380D01*
X39261904Y-40071428D02*
X39309523Y-39500000D01*
X39261904Y-39452380D01*
X39214285Y-39500000D01*
X39261904Y-40071428D01*
X39261904Y-39452380D01*
X38785714Y-40452380D02*
X38785714Y-39452380D01*
X38214285Y-40452380D01*
X38214285Y-39452380D01*
X37309523Y-40452380D02*
X37309523Y-39928571D01*
X37357142Y-39833333D01*
X37452380Y-39785714D01*
X37642857Y-39785714D01*
X37738095Y-39833333D01*
X37309523Y-40404761D02*
X37404761Y-40452380D01*
X37642857Y-40452380D01*
X37738095Y-40404761D01*
X37785714Y-40309523D01*
X37785714Y-40214285D01*
X37738095Y-40119047D01*
X37642857Y-40071428D01*
X37404761Y-40071428D01*
X37309523Y-40023809D01*
X36833333Y-39785714D02*
X36833333Y-40452380D01*
X36833333Y-39880952D02*
X36785714Y-39833333D01*
X36690476Y-39785714D01*
X36547619Y-39785714D01*
X36452380Y-39833333D01*
X36404761Y-39928571D01*
X36404761Y-40452380D01*
X35785714Y-40452380D02*
X35880952Y-40404761D01*
X35928571Y-40357142D01*
X35976190Y-40261904D01*
X35976190Y-39976190D01*
X35928571Y-39880952D01*
X35880952Y-39833333D01*
X35785714Y-39785714D01*
X35642857Y-39785714D01*
X35547619Y-39833333D01*
X35500000Y-39880952D01*
X35452380Y-39976190D01*
X35452380Y-40261904D01*
X35500000Y-40357142D01*
X35547619Y-40404761D01*
X35642857Y-40452380D01*
X35785714Y-40452380D01*
%TD*%
M02*
