M48
; DRILL file {KiCad (5.1.9)-1} date 03/08/22 16:33:31
; FORMAT={-:-/ absolute / inch / decimal}
; #@! TF.CreationDate,2022-03-08T16:33:31+11:00
; #@! TF.GenerationSoftware,Kicad,Pcbnew,(5.1.9)-1
; #@! TF.FileFunction,NonPlated,1,2,NPTH
FMAT,2
INCH
T1C0.0709
T2C0.1339
%
G90
G05
T1
X2.0669Y-3.7795
X2.2441Y-1.1024
X2.2441Y-1.7717
X2.2441Y-2.4409
X2.2441Y-3.1102
X2.5Y-3.7795
X2.6772Y-1.1024
X2.6772Y-1.7717
X2.6772Y-2.4409
X2.6772Y-3.1102
X2.7756Y-3.7795
X3.1299Y-1.1024
X3.1299Y-1.7717
X3.1299Y-2.4409
X3.1299Y-3.1102
X3.2087Y-3.7795
X3.4843Y-3.7795
X3.563Y-1.1024
X3.563Y-1.7717
X3.563Y-2.4409
X3.563Y-3.1102
X3.8386Y-1.1024
X3.8386Y-1.7717
X3.8386Y-2.4409
X3.8386Y-3.1102
X3.9173Y-3.7795
X4.1929Y-3.7795
X4.2717Y-1.1024
X4.2717Y-1.7717
X4.2717Y-2.4409
X4.2717Y-3.1102
X4.5472Y-1.1024
X4.5472Y-1.7717
X4.5472Y-2.4409
X4.5472Y-3.1102
X4.626Y-3.7795
X4.9016Y-3.7795
X4.9803Y-1.1024
X4.9803Y-1.7717
X4.9803Y-2.4409
X4.9803Y-3.1102
X5.2559Y-1.1024
X5.2559Y-1.7717
X5.2559Y-2.4409
X5.2559Y-3.1102
X5.3346Y-3.7795
X5.689Y-1.1024
X5.689Y-1.7717
X5.689Y-2.4409
X5.689Y-3.1102
X5.7874Y-3.7795
X5.9646Y-1.1024
X5.9646Y-1.7717
X5.9646Y-2.4409
X5.9646Y-3.1102
X6.2205Y-3.7795
X6.3976Y-1.1024
X6.3976Y-1.7717
X6.3976Y-2.4409
X6.3976Y-3.1102
T2
X2.2835Y-3.7795
X2.4606Y-1.1024
X2.4606Y-1.7717
X2.4606Y-2.4409
X2.4606Y-3.1102
X2.9921Y-3.7795
X3.3465Y-1.1024
X3.3465Y-1.7717
X3.3465Y-2.4409
X3.3465Y-3.1102
X3.7008Y-3.7795
X4.0551Y-1.1024
X4.0551Y-1.7717
X4.0551Y-2.4409
X4.0551Y-3.1102
X4.4094Y-3.7795
X4.7638Y-1.1024
X4.7638Y-1.7717
X4.7638Y-2.4409
X4.7638Y-3.1102
X5.1181Y-3.7795
X5.4724Y-1.1024
X5.4724Y-1.7717
X5.4724Y-2.4409
X5.4724Y-3.1102
X6.0039Y-3.7795
X6.1811Y-1.1024
X6.1811Y-1.7717
X6.1811Y-2.4409
X6.1811Y-3.1102
T0
M30
