M48
; DRILL file {KiCad (5.1.9)-1} date 03/08/22 16:33:31
; FORMAT={-:-/ absolute / inch / decimal}
; #@! TF.CreationDate,2022-03-08T16:33:31+11:00
; #@! TF.GenerationSoftware,Kicad,Pcbnew,(5.1.9)-1
; #@! TF.FileFunction,Plated,1,2,PTH
FMAT,2
INCH
T1C0.0118
T2C0.0157
T3C0.0276
T4C0.0300
T5C0.0320
T6C0.0394
T7C0.0512
T8C0.0866
%
G90
G05
T3
X1.2347Y-2.5856
X1.2347Y-2.7856
X1.2347Y-2.8856
X1.2347Y-3.0856
X1.2347Y-3.1856
X1.2347Y-3.3856
X1.2347Y-3.4856
X1.2347Y-3.6856
X1.2347Y-3.7856
X1.2347Y-3.9856
X1.3347Y-2.5856
X1.3347Y-2.7856
X1.3347Y-2.8856
X1.3347Y-3.0856
X1.3347Y-3.1856
X1.3347Y-3.3856
X1.3347Y-3.4856
X1.3347Y-3.6856
X1.3347Y-3.7856
X1.3347Y-3.9856
X1.4347Y-2.5856
X1.4347Y-2.7856
X1.4347Y-2.8856
X1.4347Y-3.0856
X1.4347Y-3.1856
X1.4347Y-3.3856
X1.4347Y-3.4856
X1.4347Y-3.6856
X1.4347Y-3.7856
X1.4347Y-3.9856
X1.6347Y-2.5856
X1.6347Y-2.7856
X1.6347Y-2.8856
X1.6347Y-3.0856
X1.6347Y-3.1856
X1.6347Y-3.3856
X1.6347Y-3.4856
X1.6347Y-3.6856
X1.6347Y-3.7856
X1.6347Y-3.9856
X1.7347Y-2.5856
X1.7347Y-2.7856
X1.7347Y-2.8856
X1.7347Y-3.0856
X1.7347Y-3.1856
X1.7347Y-3.3856
X1.7347Y-3.4856
X1.7347Y-3.6856
X1.7347Y-3.7856
X1.7347Y-3.9856
X1.8347Y-2.5856
X1.8347Y-2.7856
X1.8347Y-2.8856
X1.8347Y-3.0856
X1.8347Y-3.1856
X1.8347Y-3.3856
X1.8347Y-3.4856
X1.8347Y-3.6856
X1.8347Y-3.7856
X1.8347Y-3.9856
T4
X1.5354Y-2.1063
X1.6732Y-2.1063
T5
X1.2359Y-0.9064
X1.2359Y-1.0048
X1.2359Y-1.1048
X1.2359Y-1.2048
X1.2359Y-1.3048
X1.2359Y-1.4048
X1.2359Y-1.5048
X1.2359Y-1.6048
X1.2359Y-1.7048
X1.2359Y-1.8048
X1.2359Y-1.9048
X1.2359Y-2.0048
X1.2359Y-2.1048
X1.8351Y-0.9064
X1.8351Y-1.0048
X1.8351Y-1.1048
X1.8351Y-1.2048
X1.8351Y-1.3048
X1.8351Y-1.4048
X1.8351Y-1.5048
X1.8351Y-1.6048
X1.8351Y-1.7048
X1.8351Y-1.8048
X1.8351Y-1.9048
X1.8351Y-2.0048
X1.8351Y-2.1048
T6
X1.437Y-2.2638
X1.5354Y-2.2638
X1.6339Y-2.2638
T7
X1.4075Y-2.4409
X1.6634Y-2.4409
T8
X2.6378Y-3.4646
X2.9921Y-1.437
X5.8268Y-1.437
X5.8268Y-3.4252
T1
G00X2.2697Y-4.0118
M15
G01X2.2972Y-4.0118
M16
G05
G00X2.4469Y-1.3346
M15
G01X2.4744Y-1.3346
M16
G05
G00X2.4469Y-2.0039
M15
G01X2.4744Y-2.0039
M16
G05
G00X2.4469Y-2.6732
M15
G01X2.4744Y-2.6732
M16
G05
G00X2.4469Y-3.3425
M15
G01X2.4744Y-3.3425
M16
G05
G00X2.9783Y-4.0118
M15
G01X3.0059Y-4.0118
M16
G05
G00X3.3327Y-1.3346
M15
G01X3.3602Y-1.3346
M16
G05
G00X3.3327Y-2.0039
M15
G01X3.3602Y-2.0039
M16
G05
G00X3.3327Y-2.6732
M15
G01X3.3602Y-2.6732
M16
G05
G00X3.3327Y-3.3425
M15
G01X3.3602Y-3.3425
M16
G05
G00X3.687Y-4.0118
M15
G01X3.7146Y-4.0118
M16
G05
G00X4.0413Y-1.3346
M15
G01X4.0689Y-1.3346
M16
G05
G00X4.0413Y-2.0039
M15
G01X4.0689Y-2.0039
M16
G05
G00X4.0413Y-2.6732
M15
G01X4.0689Y-2.6732
M16
G05
G00X4.0413Y-3.3425
M15
G01X4.0689Y-3.3425
M16
G05
G00X4.3957Y-4.0118
M15
G01X4.4232Y-4.0118
M16
G05
G00X4.75Y-1.3346
M15
G01X4.7776Y-1.3346
M16
G05
G00X4.75Y-2.0039
M15
G01X4.7776Y-2.0039
M16
G05
G00X4.75Y-2.6732
M15
G01X4.7776Y-2.6732
M16
G05
G00X4.75Y-3.3425
M15
G01X4.7776Y-3.3425
M16
G05
G00X5.1043Y-4.0118
M15
G01X5.1319Y-4.0118
M16
G05
G00X5.4587Y-1.3346
M15
G01X5.4862Y-1.3346
M16
G05
G00X5.4587Y-2.0039
M15
G01X5.4862Y-2.0039
M16
G05
G00X5.4587Y-2.6732
M15
G01X5.4862Y-2.6732
M16
G05
G00X5.4587Y-3.3425
M15
G01X5.4862Y-3.3425
M16
G05
G00X5.9902Y-4.0118
M15
G01X6.0177Y-4.0118
M16
G05
G00X6.1673Y-1.3346
M15
G01X6.1949Y-1.3346
M16
G05
G00X6.1673Y-2.0039
M15
G01X6.1949Y-2.0039
M16
G05
G00X6.1673Y-2.6732
M15
G01X6.1949Y-2.6732
M16
G05
G00X6.1673Y-3.3425
M15
G01X6.1949Y-3.3425
M16
G05
T2
G00X2.0709Y-3.9331
M15
G01X2.0945Y-3.9331
M16
G05
G00X2.248Y-1.2559
M15
G01X2.2717Y-1.2559
M16
G05
G00X2.248Y-1.9252
M15
G01X2.2717Y-1.9252
M16
G05
G00X2.248Y-2.5945
M15
G01X2.2717Y-2.5945
M16
G05
G00X2.248Y-3.2638
M15
G01X2.2717Y-3.2638
M16
G05
G00X2.4724Y-3.9331
M15
G01X2.4961Y-3.9331
M16
G05
G00X2.6496Y-1.2559
M15
G01X2.6732Y-1.2559
M16
G05
G00X2.6496Y-1.9252
M15
G01X2.6732Y-1.9252
M16
G05
G00X2.6496Y-2.5945
M15
G01X2.6732Y-2.5945
M16
G05
G00X2.6496Y-3.2638
M15
G01X2.6732Y-3.2638
M16
G05
G00X2.7795Y-3.9331
M15
G01X2.8031Y-3.9331
M16
G05
G00X3.1339Y-1.2559
M15
G01X3.1575Y-1.2559
M16
G05
G00X3.1339Y-1.9252
M15
G01X3.1575Y-1.9252
M16
G05
G00X3.1339Y-2.5945
M15
G01X3.1575Y-2.5945
M16
G05
G00X3.1339Y-3.2638
M15
G01X3.1575Y-3.2638
M16
G05
G00X3.1811Y-3.9331
M15
G01X3.2047Y-3.9331
M16
G05
G00X3.4882Y-3.9331
M15
G01X3.5118Y-3.9331
M16
G05
G00X3.5354Y-1.2559
M15
G01X3.5591Y-1.2559
M16
G05
G00X3.5354Y-1.9252
M15
G01X3.5591Y-1.9252
M16
G05
G00X3.5354Y-2.5945
M15
G01X3.5591Y-2.5945
M16
G05
G00X3.5354Y-3.2638
M15
G01X3.5591Y-3.2638
M16
G05
G00X3.8425Y-1.2559
M15
G01X3.8661Y-1.2559
M16
G05
G00X3.8425Y-1.9252
M15
G01X3.8661Y-1.9252
M16
G05
G00X3.8425Y-2.5945
M15
G01X3.8661Y-2.5945
M16
G05
G00X3.8425Y-3.2638
M15
G01X3.8661Y-3.2638
M16
G05
G00X3.8898Y-3.9331
M15
G01X3.9134Y-3.9331
M16
G05
G00X4.1969Y-3.9331
M15
G01X4.2205Y-3.9331
M16
G05
G00X4.2441Y-1.2559
M15
G01X4.2677Y-1.2559
M16
G05
G00X4.2441Y-1.9252
M15
G01X4.2677Y-1.9252
M16
G05
G00X4.2441Y-2.5945
M15
G01X4.2677Y-2.5945
M16
G05
G00X4.2441Y-3.2638
M15
G01X4.2677Y-3.2638
M16
G05
G00X4.5512Y-1.2559
M15
G01X4.5748Y-1.2559
M16
G05
G00X4.5512Y-1.9252
M15
G01X4.5748Y-1.9252
M16
G05
G00X4.5512Y-2.5945
M15
G01X4.5748Y-2.5945
M16
G05
G00X4.5512Y-3.2638
M15
G01X4.5748Y-3.2638
M16
G05
G00X4.5984Y-3.9331
M15
G01X4.622Y-3.9331
M16
G05
G00X4.9055Y-3.9331
M15
G01X4.9291Y-3.9331
M16
G05
G00X4.9528Y-1.2559
M15
G01X4.9764Y-1.2559
M16
G05
G00X4.9528Y-1.9252
M15
G01X4.9764Y-1.9252
M16
G05
G00X4.9528Y-2.5945
M15
G01X4.9764Y-2.5945
M16
G05
G00X4.9528Y-3.2638
M15
G01X4.9764Y-3.2638
M16
G05
G00X5.2598Y-1.2559
M15
G01X5.2835Y-1.2559
M16
G05
G00X5.2598Y-1.9252
M15
G01X5.2835Y-1.9252
M16
G05
G00X5.2598Y-2.5945
M15
G01X5.2835Y-2.5945
M16
G05
G00X5.2598Y-3.2638
M15
G01X5.2835Y-3.2638
M16
G05
G00X5.3071Y-3.9331
M15
G01X5.3307Y-3.9331
M16
G05
G00X5.6614Y-1.2559
M15
G01X5.685Y-1.2559
M16
G05
G00X5.6614Y-1.9252
M15
G01X5.685Y-1.9252
M16
G05
G00X5.6614Y-2.5945
M15
G01X5.685Y-2.5945
M16
G05
G00X5.6614Y-3.2638
M15
G01X5.685Y-3.2638
M16
G05
G00X5.7913Y-3.9331
M15
G01X5.815Y-3.9331
M16
G05
G00X5.9685Y-1.2559
M15
G01X5.9921Y-1.2559
M16
G05
G00X5.9685Y-1.9252
M15
G01X5.9921Y-1.9252
M16
G05
G00X5.9685Y-2.5945
M15
G01X5.9921Y-2.5945
M16
G05
G00X5.9685Y-3.2638
M15
G01X5.9921Y-3.2638
M16
G05
G00X6.1929Y-3.9331
M15
G01X6.2165Y-3.9331
M16
G05
G00X6.3701Y-1.2559
M15
G01X6.3937Y-1.2559
M16
G05
G00X6.3701Y-1.9252
M15
G01X6.3937Y-1.9252
M16
G05
G00X6.3701Y-2.5945
M15
G01X6.3937Y-2.5945
M16
G05
G00X6.3701Y-3.2638
M15
G01X6.3937Y-3.2638
M16
G05
T0
M30
